<svg width="54" height="59" viewBox="0 0 54 59" fill="none" xmlns="http://www.w3.org/2000/svg">
<rect x="6" y="15" width="43" height="28" fill="#12B759"/>
<path fill-rule="evenodd" clip-rule="evenodd" d="M52.7888 16.8602C53.0767 17.7271 53.1805 18.6246 53.1785 19.5391C53.1738 22.1319 53.1746 24.7265 53.1754 27.3207C53.1756 27.9174 53.1758 28.5141 53.1759 29.1107H53.1674C53.1674 30.0865 53.1691 31.0624 53.1708 32.0384C53.1748 34.4136 53.1789 36.789 53.159 39.1641C53.1439 40.8717 52.531 42.4154 51.6616 43.8612C50.7602 45.3592 49.5754 46.5563 48.0402 47.4375C42.5364 50.5902 37.0488 53.771 31.5639 56.9544C29.8028 57.9772 27.9008 58.3017 25.9014 58.192C24.265 58.1026 22.7637 57.6104 21.3395 56.7795C15.9172 53.6157 10.4747 50.4832 5.03419 47.3488C2.72155 46.0179 1.32405 43.9787 0.459172 41.5192C0.134766 40.5956 0.0133511 39.6374 0.0140061 38.6583C0.0156969 36.6007 0.0114399 34.5434 0.00719009 32.4861C-0.00169807 28.1826 -0.0105943 23.8794 0.0348898 19.5763C0.0753625 15.7708 1.79989 12.7944 5.07726 10.8564C10.5752 7.60904 16.1307 4.45763 21.6534 1.25402C23.3049 0.2945 25.0888 -0.0449253 26.9654 0.00468685C28.6684 0.0510317 30.2532 0.485747 31.7401 1.35323C37.2107 4.54118 42.6995 7.69977 48.1825 10.8668C50.5434 12.231 51.9514 14.3296 52.7888 16.8602ZM35.0697 38.2562L43.9326 29.394C44.2387 29.0886 44.411 28.6734 44.4103 28.2413L44.4097 24.3647C44.4097 23.9313 44.238 23.5168 43.9319 23.2107L37.5625 16.8413C37.2564 16.5358 36.8412 16.3635 36.4085 16.3635H32.5306C32.0972 16.3635 31.6827 16.5352 31.3766 16.8413L22.5157 25.7022C22.2102 26.0083 22.0379 26.4234 22.0379 26.8562V30.7334C22.0379 31.1675 22.2102 31.5826 22.517 31.8888L22.8003 32.1714C23.438 32.8085 24.4706 32.8065 25.1077 32.1688C25.6704 31.6048 25.735 30.7321 25.3016 30.097V27.5318L33.2062 19.6272H35.7329L41.146 25.0409L41.1467 27.5657L33.2401 35.471H30.6775C30.0398 35.0297 29.1605 35.0943 28.5953 35.6616C27.9589 36.2993 27.9595 37.3326 28.5979 37.969L28.887 38.2575C29.1932 38.5623 29.6077 38.734 30.0398 38.734H33.9157C34.3491 38.734 34.7636 38.5623 35.0697 38.2562ZM20.6476 41.8488C21.081 41.8488 21.4955 41.6772 21.8016 41.371L30.6625 32.5095C30.968 32.2034 31.1403 31.7883 31.1403 31.3555V27.4783C31.1403 27.0442 30.9679 26.6284 30.6599 26.3223L30.3766 26.0403C29.7389 25.4039 28.7049 25.4065 28.0692 26.0455C27.5078 26.6095 27.4438 27.4815 27.8766 28.116V30.6806L19.9713 38.5852L17.4453 38.5858L12.0321 33.172L12.0315 30.6473L19.9381 22.7407H22.5007C23.1371 23.1813 24.0163 23.1167 24.5829 22.5501C25.2193 21.9124 25.2187 20.8791 24.5803 20.2427L24.2911 19.9542C23.985 19.6494 23.5705 19.4777 23.1384 19.4777H19.2625C18.8291 19.4777 18.4146 19.6494 18.1084 19.9555L9.24562 28.8177C8.94014 29.1238 8.76782 29.5389 8.76782 29.9717L8.76848 33.8476C8.76848 34.281 8.94014 34.6955 9.24627 35.0017L15.6156 41.3717C15.9218 41.6772 16.3369 41.8495 16.7697 41.8495L20.6476 41.8488Z" fill="white"/>
</svg>
