<svg width="97" height="106" viewBox="0 0 97 106" fill="none" xmlns="http://www.w3.org/2000/svg">
<path fill-rule="evenodd" clip-rule="evenodd" d="M95.6836 30.5604C96.2054 32.1316 96.3935 33.7584 96.3899 35.416C96.3813 40.1157 96.3828 44.8185 96.3843 49.5207C96.3846 50.6023 96.385 51.6838 96.3852 52.7653H96.3698C96.3698 54.534 96.3729 56.3029 96.3759 58.0719C96.3832 62.3771 96.3905 66.6827 96.3544 70.9879C96.3272 74.0829 95.2163 76.881 93.6404 79.5016C92.0065 82.2169 89.8591 84.3868 87.0764 85.984C77.1002 91.6985 67.1537 97.4639 57.2119 103.234C54.0198 105.088 50.5721 105.676 46.9482 105.477C43.9821 105.315 41.2609 104.423 38.6794 102.917C28.8511 97.1823 18.9862 91.5045 9.12483 85.8231C4.93301 83.4107 2.39994 79.7146 0.832282 75.2566C0.244273 73.5825 0.0241998 71.8456 0.025387 70.0709C0.0284517 66.3415 0.0207357 62.6124 0.0130326 58.8834C-0.00307786 51.0829 -0.019203 43.2832 0.0632404 35.4834C0.1366 28.5858 3.26242 23.1907 9.2029 19.678C19.1684 13.7919 29.238 8.07977 39.2484 2.273C42.2417 0.533803 45.4752 -0.0814304 48.8767 0.00849526C51.9635 0.0924986 54.8361 0.880452 57.5313 2.45283C67.4471 8.23122 77.396 13.9564 87.3343 19.6969C91.6136 22.1697 94.1656 25.9734 95.6836 30.5604H95.6836ZM63.5664 69.3421L79.6309 53.2788C80.1858 52.7251 80.4982 51.9726 80.497 51.1894L80.4958 44.1628C80.4958 43.3772 80.1846 42.6259 79.6297 42.071L68.0848 30.5261C67.5299 29.9724 66.7774 29.66 65.993 29.66H58.9641C58.1785 29.66 57.4272 29.9712 56.8723 30.5261L40.8113 46.587C40.2576 47.1419 39.9453 47.8944 39.9453 48.6788V55.7066C39.9453 56.4934 40.2576 57.2458 40.8137 57.8007L41.3272 58.313C42.4831 59.4677 44.3548 59.4642 45.5095 58.3083C46.5294 57.2861 46.6465 55.7042 45.8609 54.553V49.9034L60.1886 35.5757H64.7685L74.5802 45.3885L74.5814 49.9649L60.2501 64.2937H55.6052C54.4493 63.4939 52.8556 63.6111 51.831 64.6392C50.6775 65.7951 50.6786 67.668 51.8357 68.8216L52.3599 69.3445C52.9148 69.897 53.666 70.2082 54.4493 70.2082H61.4747C62.2603 70.2082 63.0116 69.897 63.5664 69.3421L63.5664 69.3421ZM37.4252 75.8541C38.2108 75.8541 38.9621 75.5429 39.517 74.988L55.578 58.9259C56.1317 58.371 56.444 57.6185 56.444 56.8341V49.8063C56.444 49.0196 56.1316 48.2659 55.5732 47.711L55.0597 47.1999C53.9038 46.0464 52.0298 46.0511 50.8774 47.2094C49.8599 48.2316 49.744 49.8122 50.5284 50.9622V55.6108L36.1995 69.9384L31.6208 69.9396L21.8091 60.1268L21.8079 55.5504L36.1392 41.2192H40.7841C41.9377 42.0178 43.5313 41.9007 44.5583 40.8737C45.7118 39.7178 45.7107 37.8449 44.5536 36.6914L44.0294 36.1684C43.4745 35.6159 42.7233 35.3047 41.94 35.3047H34.9146C34.129 35.3047 33.3777 35.6159 32.8228 36.1708L16.7584 52.2341C16.2046 52.789 15.8923 53.5415 15.8923 54.3259L15.8935 61.3513C15.8935 62.1369 16.2047 62.8882 16.7595 63.4431L28.3045 74.9892C28.8594 75.5429 29.6119 75.8552 30.3963 75.8552L37.4252 75.8541Z" fill="white"/>
</svg>
