<svg width="18" height="14" viewBox="0 0 18 14" fill="none" xmlns="http://www.w3.org/2000/svg">
<path d="M11.707 0.635367L17.364 6.29237C17.5515 6.47989 17.6568 6.7342 17.6568 6.99937C17.6568 7.26453 17.5515 7.51884 17.364 7.70637L11.707 13.3634C11.5184 13.5455 11.2658 13.6463 11.0036 13.644C10.7414 13.6418 10.4906 13.5366 10.3052 13.3512C10.1198 13.1658 10.0146 12.915 10.0123 12.6528C10.01 12.3906 10.1108 12.138 10.293 11.9494L14.243 7.99937H1C0.734784 7.99937 0.48043 7.89401 0.292893 7.70647C0.105357 7.51894 0 7.26458 0 6.99937C0 6.73415 0.105357 6.4798 0.292893 6.29226C0.48043 6.10472 0.734784 5.99937 1 5.99937H14.243L10.293 2.04937C10.1975 1.95712 10.1213 1.84677 10.0689 1.72477C10.0165 1.60277 9.9889 1.47155 9.98775 1.33877C9.9866 1.20599 10.0119 1.07431 10.0622 0.951412C10.1125 0.828516 10.1867 0.716864 10.2806 0.622972C10.3745 0.529079 10.4861 0.454826 10.609 0.404545C10.7319 0.354264 10.8636 0.328962 10.9964 0.330116C11.1292 0.33127 11.2604 0.358856 11.3824 0.411265C11.5044 0.463674 11.6148 0.539856 11.707 0.635367Z" fill="#002140"/>
</svg>
