<svg width="45" height="31" viewBox="0 0 45 31" fill="none" xmlns="http://www.w3.org/2000/svg">
<path d="M42.3103 13.4095L37.9685 15.5716L32.3435 4.81376L36.738 2.61649C37.0646 2.45002 37.4438 2.41943 37.7928 2.53139C38.1419 2.64334 38.4325 2.88877 38.6013 3.21415L42.9255 11.4934C43.0132 11.6592 43.0669 11.8408 43.0834 12.0275C43.0998 12.2143 43.0788 12.4025 43.0215 12.581C42.9641 12.7596 42.8717 12.9248 42.7496 13.0671C42.6274 13.2093 42.4781 13.3258 42.3103 13.4095Z" stroke="white" stroke-width="3" stroke-linecap="round" stroke-linejoin="round"/>
<path d="M7.0312 15.3961L2.6894 13.2164C2.52222 13.1345 2.37323 13.0197 2.25127 12.8791C2.12932 12.7384 2.0369 12.5746 1.9795 12.3975C1.92211 12.2204 1.90091 12.0336 1.91717 11.8481C1.93343 11.6627 1.98682 11.4824 2.07416 11.3179L6.39838 3.03865C6.56754 2.71351 6.85695 2.46726 7.20498 2.35234C7.55301 2.23743 7.93216 2.26293 8.26166 2.42342L12.6562 4.62068L7.0312 15.3961Z" stroke="white" stroke-width="3" stroke-linecap="round" stroke-linejoin="round"/>
<path d="M37.9688 15.5723L35.1562 18.877L28.6875 25.3457C28.5112 25.5106 28.2976 25.6303 28.0649 25.6945C27.8323 25.7588 27.5875 25.7658 27.3516 25.7148L17.1562 23.166C16.97 23.1141 16.7965 23.0243 16.6465 22.9023L7.03125 15.3965" stroke="white" stroke-width="3" stroke-linecap="round" stroke-linejoin="round"/>
<path d="M35.1566 18.8771L27.4222 13.2521L25.1722 14.9396C24.1974 15.6672 23.0136 16.0603 21.7972 16.0603C20.5808 16.0603 19.397 15.6672 18.4222 14.9396L17.473 14.2189C17.3125 14.0969 17.1797 13.9422 17.0835 13.765C16.9873 13.5878 16.9298 13.3922 16.9148 13.1911C16.8999 12.99 16.9278 12.7881 16.9967 12.5986C17.0657 12.4091 17.1741 12.2364 17.3148 12.092L24.2054 5.21894C24.3349 5.09014 24.4884 4.98813 24.6573 4.91876C24.8263 4.84938 25.0072 4.814 25.1898 4.81464H32.3441" stroke="white" stroke-width="3" stroke-linecap="round" stroke-linejoin="round"/>
<path d="M12.7617 4.62108L21.7793 1.98436C22.0997 1.89247 22.4423 1.91739 22.7461 2.05467L28.8281 4.81443" stroke="white" stroke-width="3" stroke-linecap="round" stroke-linejoin="round"/>
<path d="M19.6875 29.4238L14.3965 28.0879C14.1809 28.0392 13.9812 27.9363 13.8164 27.7891L9.84375 24.3438" stroke="white" stroke-width="3" stroke-linecap="round" stroke-linejoin="round"/>
</svg>
