<svg width="45" height="46" viewBox="0 0 45 46" fill="none" xmlns="http://www.w3.org/2000/svg">
<path d="M24.3938 6.37184L35.4563 11.2703C38.6438 12.6726 38.6438 14.991 35.4563 16.3932L24.3938 21.2917C23.1376 21.8526 21.0751 21.8526 19.8188 21.2917L8.75635 16.3932C5.56885 14.991 5.56885 12.6726 8.75635 11.2703L19.8188 6.37184C21.0751 5.81095 23.1376 5.81095 24.3938 6.37184Z" stroke="#262826" stroke-width="3" stroke-linecap="round" stroke-linejoin="round"/>
<path d="M5.625 21.4783C5.625 23.0488 6.80625 24.8624 8.25 25.498L20.9812 31.1444C21.9562 31.5744 23.0625 31.5744 24.0188 31.1444L36.75 25.498C38.1938 24.8624 39.375 23.0488 39.375 21.4783" stroke="#262826" stroke-width="3" stroke-linecap="round" stroke-linejoin="round"/>
<path d="M5.625 30.8262C5.625 32.565 6.65625 34.1355 8.25 34.8459L20.9812 40.4923C21.9562 40.9223 23.0625 40.9223 24.0188 40.4923L36.75 34.8459C38.3438 34.1355 39.375 32.565 39.375 30.8262" stroke="#262826" stroke-width="3" stroke-linecap="round" stroke-linejoin="round"/>
</svg>
