<svg width="45" height="45" viewBox="0 0 45 45" fill="none" xmlns="http://www.w3.org/2000/svg">
<path d="M24.3938 5.44496L35.4563 10.3306C38.6438 11.7292 38.6438 14.0415 35.4563 15.44L24.3938 20.3257C23.1376 20.8851 21.0751 20.8851 19.8188 20.3257L8.75635 15.44C5.56885 14.0415 5.56885 11.7292 8.75635 10.3306L19.8188 5.44496C21.0751 4.88553 23.1376 4.88553 24.3938 5.44496Z" stroke="white" stroke-width="3" stroke-linecap="round" stroke-linejoin="round"/>
<path d="M5.625 20.5127C5.625 22.0791 6.80625 23.8879 8.25 24.5219L20.9812 30.1535C21.9562 30.5824 23.0625 30.5824 24.0188 30.1535L36.75 24.5219C38.1938 23.8879 39.375 22.0791 39.375 20.5127" stroke="white" stroke-width="3" stroke-linecap="round" stroke-linejoin="round"/>
<path d="M5.625 29.8359C5.625 31.5702 6.65625 33.1365 8.25 33.8452L20.9812 39.4767C21.9562 39.9056 23.0625 39.9056 24.0188 39.4767L36.75 33.8452C38.3438 33.1365 39.375 31.5702 39.375 29.8359" stroke="white" stroke-width="3" stroke-linecap="round" stroke-linejoin="round"/>
</svg>
