<svg width="25" height="28" viewBox="0 0 25 28" fill="none" xmlns="http://www.w3.org/2000/svg">
<path d="M6.7798 0.887882C7.71895 1.2048 8.6121 1.64444 9.43605 2.19538C10.6004 1.89735 11.7979 1.74783 12.9998 1.75038C14.241 1.75038 15.4385 1.90538 16.561 2.19413C17.3847 1.64372 18.2774 1.20451 19.216 0.887882C20.0873 0.591632 21.3285 0.111633 22.066 0.927883C22.566 1.48288 22.691 2.41288 22.7798 3.12288C22.8798 3.91538 22.9035 4.94788 22.641 5.97288C23.6448 7.26913 24.2498 8.81538 24.2498 10.5004C24.2498 13.0529 22.8673 15.2691 20.821 16.8041C19.8358 17.5328 18.7437 18.1046 17.5835 18.4991C17.851 19.1116 17.9998 19.7891 17.9998 20.5004V24.2504C17.9998 24.5819 17.8681 24.8998 17.6337 25.1343C17.3993 25.3687 17.0813 25.5004 16.7498 25.5004H9.2498C8.91828 25.5004 8.60034 25.3687 8.36592 25.1343C8.13149 24.8998 7.9998 24.5819 7.9998 24.2504V23.0116C6.80605 23.1579 5.8048 23.0279 4.95355 22.6666C4.06355 22.2891 3.44355 21.7041 2.9773 21.1441C2.5348 20.6141 2.0523 19.4191 1.3548 19.1866C1.19902 19.1348 1.05498 19.0527 0.930908 18.9452C0.806836 18.8376 0.70516 18.7067 0.631686 18.5599C0.483298 18.2633 0.458788 17.92 0.563548 17.6054C0.668309 17.2908 0.893758 17.0307 1.1903 16.8823C1.48684 16.7339 1.83019 16.7094 2.1448 16.8141C2.9773 17.0916 3.5198 17.6916 3.89105 18.1741C4.49105 18.9491 4.97855 19.9616 5.92855 20.3654C6.3198 20.5316 6.89355 20.6404 7.79105 20.5179L7.9998 20.4754C8.00268 19.7952 8.14432 19.1227 8.41605 18.4991C7.25589 18.1046 6.16379 17.5328 5.17855 16.8041C3.1323 15.2691 1.7498 13.0541 1.7498 10.5004C1.7498 8.81788 2.35355 7.27288 3.3548 5.97788C3.0923 4.95288 3.1148 3.91788 3.2148 3.12413L3.22105 3.07663C3.3123 2.34913 3.41855 1.49288 3.92855 0.927883C4.66605 0.111633 5.90855 0.592883 6.77855 0.889133L6.7798 0.887882Z" fill="#002140"/>
</svg>
