<svg width="46" height="45" viewBox="0 0 46 45" fill="none" xmlns="http://www.w3.org/2000/svg">
<path d="M23.2344 7.03125C22.4885 7.03125 21.7731 7.32757 21.2456 7.85501C20.7182 8.38246 20.4219 9.09783 20.4219 9.84375C20.4219 10.5897 20.7182 11.305 21.2456 11.8325C21.7731 12.3599 22.4885 12.6562 23.2344 12.6562C23.9803 12.6562 24.6957 12.3599 25.2231 11.8325C25.7506 11.305 26.0469 10.5897 26.0469 9.84375C26.0469 9.09783 25.7506 8.38246 25.2231 7.85501C24.6957 7.32757 23.9803 7.03125 23.2344 7.03125ZM17.6094 9.84375C17.6094 8.35191 18.202 6.92117 19.2569 5.86627C20.3118 4.81138 21.7425 4.21875 23.2344 4.21875C24.7262 4.21875 26.157 4.81138 27.2118 5.86627C28.2667 6.92117 28.8594 8.35191 28.8594 9.84375C28.8594 11.3356 28.2667 12.7663 27.2118 13.8212C26.157 14.8761 24.7262 15.4688 23.2344 15.4688C21.7425 15.4688 20.3118 14.8761 19.2569 13.8212C18.202 12.7663 17.6094 11.3356 17.6094 9.84375ZM36.5938 8.4375C36.0343 8.4375 35.4978 8.65974 35.1022 9.05532C34.7066 9.45091 34.4844 9.98743 34.4844 10.5469C34.4844 11.1063 34.7066 11.6428 35.1022 12.0384C35.4978 12.434 36.0343 12.6562 36.5938 12.6562C37.1532 12.6562 37.6897 12.434 38.0853 12.0384C38.4809 11.6428 38.7031 11.1063 38.7031 10.5469C38.7031 9.98743 38.4809 9.45091 38.0853 9.05532C37.6897 8.65974 37.1532 8.4375 36.5938 8.4375ZM31.6719 10.5469C31.6719 9.90053 31.7992 9.2605 32.0465 8.66335C32.2939 8.06621 32.6564 7.52362 33.1135 7.06658C33.5705 6.60954 34.1131 6.247 34.7102 5.99966C35.3074 5.75231 35.9474 5.625 36.5938 5.625C37.2401 5.625 37.8801 5.75231 38.4773 5.99966C39.0744 6.247 39.617 6.60954 40.074 7.06658C40.5311 7.52362 40.8936 8.06621 41.141 8.66335C41.3883 9.2605 41.5156 9.90053 41.5156 10.5469C41.5156 11.8522 40.9971 13.1041 40.074 14.0272C39.151 14.9502 37.8991 15.4688 36.5938 15.4688C35.2884 15.4688 34.0365 14.9502 33.1135 14.0272C32.1904 13.1041 31.6719 11.8522 31.6719 10.5469ZM7.76563 10.5469C7.76563 9.98743 7.98786 9.45091 8.38345 9.05532C8.77903 8.65974 9.31556 8.4375 9.875 8.4375C10.4344 8.4375 10.971 8.65974 11.3666 9.05532C11.7621 9.45091 11.9844 9.98743 11.9844 10.5469C11.9844 11.1063 11.7621 11.6428 11.3666 12.0384C10.971 12.434 10.4344 12.6562 9.875 12.6562C9.31556 12.6562 8.77903 12.434 8.38345 12.0384C7.98786 11.6428 7.76563 11.1063 7.76563 10.5469ZM9.875 5.625C8.56964 5.625 7.31774 6.14355 6.39471 7.06658C5.47168 7.98961 4.95313 9.24151 4.95313 10.5469C4.95313 11.8522 5.47168 13.1041 6.39471 14.0272C7.31774 14.9502 8.56964 15.4688 9.875 15.4688C11.1804 15.4688 12.4323 14.9502 13.3553 14.0272C14.2783 13.1041 14.7969 11.8522 14.7969 10.5469C14.7969 9.24151 14.2783 7.98961 13.3553 7.06658C12.4323 6.14355 11.1804 5.625 9.875 5.625ZM12.8998 34.4602C12.2638 34.8794 11.5262 35.1186 10.7652 35.1523C10.0042 35.1861 9.24829 35.0132 8.57764 34.652C7.90699 34.2908 7.34665 33.7548 6.95609 33.1008C6.56553 32.4468 6.35933 31.6992 6.35938 30.9375V21.7969C6.35938 21.6104 6.43345 21.4316 6.56532 21.2997C6.69718 21.1678 6.87602 21.0938 7.0625 21.0938H12.7311C12.8607 20.0645 13.2725 19.0911 13.9208 18.2812H7.0625C6.1301 18.2812 5.23589 18.6516 4.57658 19.311C3.91727 19.9703 3.54688 20.8645 3.54688 21.7969V30.9375C3.54651 32.1484 3.85887 33.3388 4.45368 34.3935C5.04849 35.4482 5.9056 36.3315 6.94199 36.9577C7.97838 37.5839 9.15892 37.9318 10.3693 37.9678C11.5796 38.0037 12.7787 37.7265 13.8505 37.163C13.4121 36.3095 13.0923 35.4001 12.8998 34.4602ZM32.6183 37.163C33.69 37.7265 34.8891 38.0037 36.0995 37.9678C37.3098 37.9318 38.4904 37.5839 39.5268 36.9577C40.5631 36.3315 41.4203 35.4482 42.0151 34.3935C42.6099 33.3388 42.9222 32.1484 42.9219 30.9375V21.7969C42.9219 20.8645 42.5515 19.9703 41.8922 19.311C41.2329 18.6516 40.3387 18.2812 39.4062 18.2812H32.548C33.1963 19.0911 33.608 20.0645 33.7377 21.0938H39.4062C39.5927 21.0938 39.7716 21.1678 39.9034 21.2997C40.0353 21.4316 40.1094 21.6104 40.1094 21.7969V30.9375C40.1094 31.6992 39.9032 32.4468 39.5127 33.1008C39.1221 33.7548 38.5618 34.2908 37.8911 34.652C37.2205 35.0132 36.4645 35.1861 35.7035 35.1523C34.9426 35.1186 34.2049 34.8794 33.5689 34.4602C33.3764 35.4001 33.0566 36.3095 32.6183 37.163ZM18.3125 18.2812C17.3801 18.2812 16.4859 18.6516 15.8266 19.311C15.1673 19.9703 14.7969 20.8645 14.7969 21.7969V32.3438C14.7969 34.5815 15.6858 36.7276 17.2682 38.31C18.8505 39.8923 20.9966 40.7812 23.2344 40.7812C25.4721 40.7812 27.6183 39.8923 29.2006 38.31C30.7829 36.7276 31.6719 34.5815 31.6719 32.3438V21.7969C31.6719 20.8645 31.3015 19.9703 30.6422 19.311C29.9829 18.6516 29.0887 18.2812 28.1562 18.2812H18.3125ZM17.6094 21.7969C17.6094 21.6104 17.6835 21.4316 17.8153 21.2997C17.9472 21.1678 18.126 21.0938 18.3125 21.0938H28.1562C28.3427 21.0938 28.5216 21.1678 28.6534 21.2997C28.7853 21.4316 28.8594 21.6104 28.8594 21.7969V32.3438C28.8594 33.8356 28.2667 35.2663 27.2118 36.3212C26.157 37.3761 24.7262 37.9688 23.2344 37.9688C21.7425 37.9688 20.3118 37.3761 19.2569 36.3212C18.202 35.2663 17.6094 33.8356 17.6094 32.3438V21.7969Z" fill="white"/>
</svg>
