<svg width="30" height="30" viewBox="0 0 30 30" fill="none" xmlns="http://www.w3.org/2000/svg">
<path d="M6.81083 30V9.75906H0.380486V30H6.81083ZM3.59649 6.99384C5.83886 6.99384 7.23463 5.43957 7.23463 3.49725C7.19285 1.51113 5.83895 0 3.63904 0C1.43948 0 0.00109863 1.51116 0.00109863 3.49725C0.00109863 5.43966 1.39652 6.99384 3.55451 6.99384H3.59629H3.59649ZM10.37 30H16.8003V18.6965C16.8003 18.0915 16.8421 17.4872 17.0119 17.0548C17.4768 15.8461 18.5348 14.5943 20.3112 14.5943C22.638 14.5943 23.5689 16.4504 23.5689 19.1714V29.9999H29.9989V18.3939C29.9989 12.1767 26.8265 9.28386 22.5957 9.28386C19.1268 9.28386 17.6037 11.3125 16.7576 12.6942H16.8005V9.75864H10.3701C10.4545 11.6579 10.3701 29.9996 10.3701 29.9996L10.37 30Z" fill="#002140"/>
</svg>
