<svg width="32" height="48" viewBox="0 0 32 48" fill="none" xmlns="http://www.w3.org/2000/svg">
<path d="M18.9942 9H12.0873M29.3547 12V32C29.3547 40 27.628 42 20.721 42H10.3605C3.45355 42 1.72681 40 1.72681 32V12C1.72681 4 3.45355 2 10.3605 2H20.721C27.628 2 29.3547 4 29.3547 12Z" stroke="#262826" stroke-width="3" stroke-linecap="round" stroke-linejoin="round"/>
<path d="M15.5407 36.2C16.2506 36.2 16.9313 35.8734 17.4333 35.292C17.9352 34.7107 18.2172 33.9222 18.2172 33.1C18.2172 32.2778 17.9352 31.4893 17.4333 30.908C16.9313 30.3266 16.2506 30 15.5407 30C14.8309 30 14.1501 30.3266 13.6482 30.908C13.1462 31.4893 12.8643 32.2778 12.8643 33.1C12.8643 33.9222 13.1462 34.7107 13.6482 35.292C14.1501 35.8734 14.8309 36.2 15.5407 36.2Z" stroke="#262826" stroke-width="2" stroke-linecap="round" stroke-linejoin="round"/>
</svg>
