<svg width="24" height="24" viewBox="0 0 24 24" fill="none" xmlns="http://www.w3.org/2000/svg">
<path d="M0 8.625H24V15.75H0V8.625Z" fill="#E6E7E8"/>
<path d="M20.25 3.75H3.75C1.26488 3.75 0 5.59688 0 7.875V9.375H24V7.875C24 5.59688 22.7351 3.75 20.25 3.75Z" fill="#EC1C24"/>
<path d="M0 16.125C0 18.4031 1.26488 20.25 3.75 20.25H20.25C22.7351 20.25 24 18.4031 24 16.125V15H0V16.125Z" fill="#0038A8"/>
<path fill-rule="evenodd" clip-rule="evenodd" d="M11.9251 9.56062C13.3595 9.57262 14.5111 10.7317 14.501 12.1537C14.4909 13.5874 13.3276 14.7427 11.9082 14.7307C10.4727 14.7184 9.32148 13.56 9.33161 12.1372C9.34211 10.7032 10.5035 9.54975 11.9251 9.56062Z" fill="black"/>
<path fill-rule="evenodd" clip-rule="evenodd" d="M11.919 9.66017C13.2982 9.66429 14.4093 10.7795 14.4011 12.1513C14.3932 13.5298 13.284 14.6342 11.9133 14.6293C10.5341 14.6259 9.42258 13.5099 9.4312 12.1374C9.4402 10.7582 10.5472 9.65642 11.919 9.66017Z" fill="#FEFEFE"/>
<path fill-rule="evenodd" clip-rule="evenodd" d="M11.9162 9.9668C12.2026 9.96699 12.4861 10.0236 12.7506 10.1334C13.0151 10.2432 13.2554 10.404 13.4578 10.6067C13.6602 10.8093 13.8206 11.0499 13.93 11.3146C14.0394 11.5793 14.0955 11.8629 14.0953 12.1493C14.0945 13.3482 13.1165 14.3243 11.9169 14.3243C11.6305 14.3242 11.3469 14.2677 11.0823 14.1579C10.8178 14.0481 10.5774 13.8873 10.3751 13.6846C10.1727 13.4819 10.0122 13.2414 9.9029 12.9766C9.79355 12.7119 9.73745 12.4282 9.73779 12.1418C9.73908 11.5648 9.96911 11.0118 10.3775 10.6041C10.7858 10.1964 11.3391 9.96719 11.9162 9.9668Z" fill="#CD1126"/>
<path fill-rule="evenodd" clip-rule="evenodd" d="M10.2891 12.1473C10.2868 11.2533 11.0177 10.521 11.9147 10.5176C12.8087 10.5153 13.5411 11.2458 13.5441 12.144C13.5478 13.0372 12.8162 13.7703 11.9188 13.7737C11.0244 13.7756 10.2924 13.0447 10.2891 12.1473Z" fill="#FEFEFE"/>
<path fill-rule="evenodd" clip-rule="evenodd" d="M10.4371 11.2066C10.4292 11.2726 10.3839 11.3168 10.3516 11.3675C10.3377 11.3881 10.3212 11.3723 10.3077 11.3641C10.2327 11.3126 10.1569 11.2622 10.0801 11.213C10.0509 11.1931 10.0441 11.174 10.0666 11.1447C10.0932 11.1098 10.1116 11.0682 10.1514 11.0442C10.16 11.0386 10.172 11.0322 10.1821 11.0333C10.2005 11.0363 10.2305 11.0371 10.2357 11.0476C10.2721 11.1353 10.3955 11.0885 10.4289 11.1758C10.4322 11.1852 10.4345 11.1968 10.4371 11.2066Z" fill="#FDDF01"/>
<path fill-rule="evenodd" clip-rule="evenodd" d="M13.4284 11.0002C13.3335 10.9574 13.362 11.0561 13.3309 11.0902C13.3166 11.1071 13.323 11.1513 13.2907 11.1386C13.2649 11.1284 13.2787 11.0951 13.2881 11.0718C13.2959 11.0516 13.3044 11.0313 13.3136 11.0111C13.3327 10.9698 13.3365 10.9293 13.299 10.8978C13.2566 10.8611 13.2405 10.9158 13.2112 10.9286C13.1974 10.9349 13.1857 10.9492 13.1719 10.9578C13.1611 10.9648 13.1516 10.9629 13.1434 10.9522C13.1351 10.9413 13.1389 10.9308 13.1486 10.9244C13.2309 10.8599 13.3139 10.7961 13.3976 10.7328L13.4051 10.7306C13.4351 10.7264 13.5319 10.8547 13.5334 10.9004C13.5341 10.9533 13.4869 11.0002 13.4284 11.0002ZM9.84749 12.4784C9.84524 12.4417 9.85424 12.4117 9.88687 12.3926C9.92362 12.3727 9.96787 12.3641 9.99562 12.3933C10.0346 12.4323 10.0481 12.4117 10.0774 12.3851C10.1059 12.3599 10.1366 12.2898 10.1715 12.3247C10.2049 12.3566 10.1317 12.3824 10.1104 12.4143C10.0954 12.4349 10.0747 12.4507 10.062 12.4702C10.0462 12.4938 10.0549 12.5186 10.0654 12.5414C10.0789 12.5748 10.1025 12.5486 10.1212 12.5508C10.1572 12.5564 10.2097 12.5032 10.2214 12.5549C10.2292 12.5936 10.1595 12.5808 10.1265 12.5943C10.0927 12.6074 10.0552 12.6093 10.0204 12.6172C9.86962 12.6509 9.84937 12.6344 9.84749 12.4784Z" fill="#FCDE01"/>
<path fill-rule="evenodd" clip-rule="evenodd" d="M13.5414 11.5705C13.5414 11.4715 13.6066 11.4089 13.7143 11.3976C13.8148 11.3868 13.8834 11.4295 13.9059 11.5158C13.9114 11.533 13.9129 11.5513 13.9103 11.5692C13.9077 11.5872 13.901 11.6043 13.8909 11.6193C13.8766 11.6406 13.8541 11.6751 13.8275 11.6556C13.7926 11.6305 13.8418 11.6193 13.8511 11.6016C13.8592 11.5885 13.8642 11.5737 13.8657 11.5584C13.8672 11.5431 13.8652 11.5276 13.8598 11.5131C13.8544 11.4927 13.8423 11.4748 13.8254 11.4621C13.8085 11.4495 13.7879 11.4429 13.7668 11.4434C13.7011 11.44 13.6378 11.4456 13.5976 11.5083C13.5699 11.5495 13.5793 11.5923 13.6051 11.6328C13.619 11.6556 13.6381 11.6676 13.6666 11.6635C13.7056 11.6586 13.6951 11.6309 13.6951 11.6073C13.6944 11.5923 13.6858 11.5709 13.7094 11.5671C13.7326 11.5623 13.733 11.5863 13.736 11.6005C13.742 11.6305 13.7668 11.6748 13.7323 11.689C13.691 11.7066 13.6393 11.7374 13.5935 11.689C13.5769 11.6741 13.5637 11.6558 13.5547 11.6354C13.5457 11.6149 13.5412 11.5928 13.5414 11.5705ZM11.7526 10.2783C11.7521 10.3036 11.7462 10.3284 11.7352 10.3512C11.7242 10.374 11.7085 10.3941 11.689 10.4103C11.6695 10.4264 11.6468 10.4382 11.6224 10.4448C11.598 10.4514 11.5725 10.4527 11.5475 10.4485C11.5205 10.4444 11.5198 10.4271 11.516 10.4084L11.4616 10.1406C11.4586 10.126 11.4508 10.1121 11.4703 10.099C11.492 10.0842 11.5169 10.0744 11.5429 10.0704C11.569 10.0664 11.5956 10.0683 11.6208 10.076C11.6461 10.0836 11.6693 10.0969 11.6887 10.1147C11.7081 10.1325 11.7233 10.1544 11.7331 10.1789C11.7465 10.2103 11.7532 10.2441 11.7526 10.2783Z" fill="#FCDD01"/>
<path fill-rule="evenodd" clip-rule="evenodd" d="M13.0349 10.4142C13.0327 10.5162 12.9599 10.5702 12.8868 10.532C12.8178 10.4949 12.7728 10.4919 12.7477 10.577C12.7424 10.5924 12.7349 10.6205 12.7087 10.6047C12.6854 10.5924 12.7019 10.5714 12.7109 10.5549C12.751 10.4757 12.7934 10.3981 12.832 10.319C12.8478 10.2864 12.8654 10.2777 12.8954 10.298C12.9494 10.3359 13.0319 10.3437 13.0349 10.4142Z" fill="#FCDC02"/>
<path fill-rule="evenodd" clip-rule="evenodd" d="M10.1218 11.9105C10.0363 11.9042 9.95942 11.8982 9.88217 11.8933C9.84917 11.8899 9.83042 11.8798 9.83455 11.8427C9.83905 11.8044 9.84167 11.7662 9.84842 11.7283C9.85967 11.6683 9.90317 11.645 9.95792 11.6514C10.0112 11.6589 10.0528 11.6833 10.0535 11.7467C10.0535 11.7632 10.0562 11.7808 10.052 11.7965C10.0442 11.8449 10.0595 11.8678 10.1128 11.8663C10.1375 11.8655 10.1829 11.8614 10.1818 11.8933C10.1799 11.9349 10.1353 11.8982 10.1218 11.9105Z" fill="#FBDA02"/>
<path fill-rule="evenodd" clip-rule="evenodd" d="M10.9536 10.5974C10.9548 10.6217 10.9896 10.6656 10.9521 10.6724C10.912 10.6802 10.9206 10.6251 10.9128 10.5974C10.8921 10.5231 10.8753 10.447 10.8576 10.3716C10.8528 10.3499 10.8426 10.3289 10.8655 10.3112C10.891 10.2906 10.906 10.3124 10.9218 10.3255C10.9948 10.3805 11.0668 10.4367 11.1378 10.4942C11.1531 10.5051 11.1876 10.5156 11.1678 10.5415C11.1513 10.564 11.1254 10.5456 11.1111 10.5291C11.0564 10.4642 11.0144 10.5164 10.9686 10.5426C10.9476 10.555 10.9499 10.5741 10.9536 10.5974ZM10.2865 11.5259C10.2858 11.6151 10.2183 11.6725 10.1328 11.6477C10.0619 11.6279 9.9929 11.5975 9.92315 11.5716C9.91227 11.5667 9.89315 11.5637 9.89765 11.545C9.90515 11.5225 9.92315 11.5259 9.9389 11.5322C9.99815 11.5545 10.0576 11.5775 10.1174 11.6012C10.1673 11.6219 10.2111 11.6181 10.234 11.5611C10.2546 11.5071 10.2303 11.4707 10.1785 11.4501L10.0019 11.3792C9.98652 11.3725 9.96777 11.3665 9.9764 11.344C9.9824 11.329 9.99815 11.3301 10.0124 11.3357C10.0859 11.3672 10.1605 11.3972 10.2333 11.4306C10.2696 11.4482 10.2873 11.4831 10.2865 11.5259Z" fill="#FCDC02"/>
<path fill-rule="evenodd" clip-rule="evenodd" d="M10.1551 12.0004C10.1824 12.0642 10.1716 12.1306 10.1749 12.1962C10.1761 12.2326 10.1498 12.2337 10.1232 12.2348L9.86668 12.2408C9.84381 12.2416 9.8183 12.2408 9.81905 12.2101C9.8198 12.1441 9.80818 12.0792 9.82843 12.0057C9.87305 12.0484 9.85468 12.0968 9.85543 12.1384C9.85543 12.1812 9.8693 12.1962 9.91318 12.1962C9.9548 12.1962 9.97168 12.1834 9.96905 12.1399C9.9683 12.1006 9.95818 12.0586 9.98256 12.0124C10.0227 12.0507 10.0077 12.0942 10.0069 12.1302C10.0062 12.1827 10.0261 12.1962 10.0759 12.1954C10.1251 12.1954 10.1371 12.1778 10.1352 12.1321C10.1352 12.0878 10.1239 12.0417 10.1551 12.0004ZM13.6703 12.1279C13.7239 12.1531 13.7854 12.1778 13.8432 12.2104C13.8908 12.2371 13.9801 12.2326 13.9748 12.2982C13.9692 12.3529 13.8837 12.3391 13.8338 12.3559C13.7768 12.3758 13.7164 12.3859 13.6572 12.3991C13.6429 12.4024 13.6238 12.4182 13.6163 12.3927C13.6077 12.3668 13.6279 12.3586 13.6478 12.3571C13.7187 12.3522 13.7341 12.3109 13.7348 12.2461C13.7363 12.1902 13.6947 12.1902 13.6636 12.1718C13.6527 12.1643 13.6369 12.1598 13.6392 12.1426C13.6403 12.1287 13.6504 12.1272 13.6703 12.1279ZM13.2338 10.5529C13.1911 10.6557 13.1483 10.7611 13.1044 10.8649C13.0992 10.8773 13.0879 10.8807 13.0778 10.8728C13.0621 10.8604 13.0677 10.8443 13.0722 10.8286C13.0831 10.7937 13.1172 10.7637 13.0737 10.7251C13.0328 10.6876 12.9968 10.6531 12.9424 10.7007C12.9271 10.7131 12.9042 10.7258 12.8914 10.7041C12.8764 10.6786 12.9072 10.6737 12.9214 10.6658L13.1671 10.5271C13.1989 10.5083 13.2252 10.5031 13.2338 10.5529Z" fill="#FCDD01"/>
<path fill-rule="evenodd" clip-rule="evenodd" d="M10.6881 10.5192C10.6915 10.5192 10.6825 10.5169 10.675 10.5192C10.618 10.5327 10.5914 10.5702 10.5989 10.6294C10.6082 10.7029 10.6986 10.7896 10.7624 10.7813C10.8216 10.7738 10.849 10.7371 10.8445 10.6778C10.843 10.6587 10.8209 10.6287 10.8531 10.6238C10.8846 10.6189 10.8846 10.6546 10.8865 10.6778C10.8896 10.7006 10.8867 10.7238 10.878 10.745C10.8693 10.7663 10.8551 10.7849 10.837 10.7989C10.8188 10.813 10.7972 10.822 10.7744 10.825C10.7516 10.828 10.7285 10.825 10.7072 10.8162C10.672 10.8031 10.6403 10.7821 10.6145 10.7548C10.5888 10.7275 10.5697 10.6946 10.5587 10.6587C10.5512 10.637 10.5493 10.6137 10.5533 10.5911C10.5572 10.5684 10.5668 10.5472 10.5812 10.5292C10.5956 10.5113 10.6143 10.4974 10.6355 10.4887C10.6568 10.4799 10.6799 10.4768 10.7027 10.4794C10.726 10.4828 10.7612 10.4828 10.7552 10.5151C10.7466 10.5484 10.7189 10.5241 10.6881 10.5192Z" fill="#FCDC02"/>
<path fill-rule="evenodd" clip-rule="evenodd" d="M13.3281 11.1902C13.4425 11.1512 13.558 11.1444 13.6701 11.1186C13.6851 11.1146 13.6971 11.1193 13.7061 11.1328C13.7211 11.1542 13.7061 11.1692 13.6937 11.1834C13.6287 11.2594 13.5633 11.3347 13.4973 11.4092C13.489 11.4204 13.4792 11.4418 13.4594 11.4219C13.4417 11.4043 13.4575 11.3919 13.4654 11.3784C13.4864 11.3469 13.5344 11.3278 13.4999 11.2742C13.4714 11.2314 13.4545 11.1831 13.3881 11.2138C13.3727 11.2206 13.3499 11.2236 13.3281 11.1902Z" fill="#FCDD01"/>
<path fill-rule="evenodd" clip-rule="evenodd" d="M13.9763 12.0115C13.8845 12.0465 13.7855 12.0585 13.688 12.0463C13.628 12.04 13.6081 11.9901 13.6028 11.938C13.5983 11.8881 13.6122 11.8427 13.664 11.8228C13.748 11.7898 13.8383 11.7955 13.925 11.782C13.9396 11.7793 13.9553 11.7835 13.9553 11.8011C13.9535 11.8217 13.9362 11.8255 13.919 11.827L13.7375 11.8468C13.6812 11.8532 13.6407 11.8753 13.6482 11.941C13.6557 12.0028 13.6988 12.0137 13.7502 12.0115C13.8256 12.0088 13.9002 11.9796 13.9763 12.0115Z" fill="#FCDC02"/>
<path fill-rule="evenodd" clip-rule="evenodd" d="M12.0601 10.3796C11.993 10.4122 11.9225 10.4002 11.8535 10.3987C11.8269 10.3987 11.8276 10.3744 11.8276 10.3552V10.0894C11.8276 10.0695 11.8291 10.0481 11.855 10.0474C11.9191 10.0451 11.9844 10.0402 12.0714 10.0567C12.0084 10.0961 11.9619 10.0837 11.9191 10.0826C11.8726 10.0811 11.8655 10.1025 11.8655 10.1419C11.8655 10.1801 11.8749 10.1974 11.9169 10.1974C11.957 10.1974 12.0016 10.1854 12.053 10.2139C12.0061 10.2472 11.9653 10.2356 11.9263 10.2337C11.8794 10.2337 11.8655 10.2499 11.8644 10.2964C11.8644 10.3462 11.8779 10.3669 11.93 10.3639C11.9735 10.3605 12.0174 10.3556 12.0601 10.3796Z" fill="#FEE500"/>
<path fill-rule="evenodd" clip-rule="evenodd" d="M13.8629 12.8076C13.8269 12.8012 13.8168 12.7761 13.8021 12.7577C13.7459 12.6869 13.6975 12.6074 13.5963 12.5916C13.5824 12.5882 13.5603 12.5807 13.57 12.5582C13.5768 12.544 13.5936 12.5425 13.606 12.55C13.7031 12.6092 13.8029 12.5744 13.9026 12.5579C13.9169 12.5564 13.9375 12.5414 13.9435 12.5657C13.9503 12.5916 13.9281 12.5965 13.9071 12.6014C13.8599 12.6092 13.8123 12.6197 13.7624 12.6291C13.783 12.6989 13.8651 12.7277 13.8629 12.8076ZM10.4935 11.1441C10.4883 11.1392 10.4789 11.1347 10.4699 11.1276L10.2456 10.9559C10.2333 10.9465 10.2149 10.9367 10.2295 10.9169C10.2449 10.8962 10.2588 10.9127 10.2708 10.9225C10.3259 10.9634 10.3833 11.0031 10.435 11.0492C10.4796 11.0886 10.5089 11.0841 10.5381 11.035C10.5492 11.0158 10.5629 10.9984 10.579 10.9832C10.5974 10.966 10.6098 10.9795 10.6143 10.9975C10.618 11.0125 10.5119 11.1426 10.4935 11.1441ZM12.3299 10.4537C12.1765 10.4436 12.1754 10.4429 12.1994 10.2906C12.2094 10.2334 12.2196 10.1764 12.2301 10.1196C12.2339 10.1012 12.2309 10.0754 12.2616 10.0836C12.2853 10.0892 12.2736 10.1091 12.2718 10.1241C12.2631 10.1762 12.2616 10.2299 12.2451 10.2801C12.2166 10.3649 12.2373 10.4091 12.3306 10.4129C12.3475 10.4129 12.3768 10.4076 12.3753 10.4365C12.3734 10.4646 12.349 10.4586 12.3299 10.4537Z" fill="#FBD902"/>
<path fill-rule="evenodd" clip-rule="evenodd" d="M10.4359 10.6797C10.4472 10.6876 10.4562 10.6913 10.4637 10.6988C10.5357 10.7628 10.6074 10.8272 10.6789 10.8919C10.6909 10.9028 10.7052 10.9144 10.6868 10.9313C10.6726 10.9456 10.6624 10.9332 10.6519 10.9242L10.4311 10.7262C10.4242 10.7186 10.4201 10.709 10.4194 10.6988C10.4198 10.6943 10.4296 10.6876 10.4359 10.6797Z" fill="#FBD802"/>
<path fill-rule="evenodd" clip-rule="evenodd" d="M12.7359 12.0487C12.7359 12.1563 12.7145 12.2628 12.6731 12.3622C12.6316 12.4615 12.5709 12.5516 12.4944 12.6273C12.4178 12.703 12.3271 12.7627 12.2273 12.8031C12.1275 12.8434 12.0207 12.8636 11.9131 12.8624C11.8056 12.8619 11.6991 12.8401 11.6 12.7983C11.5009 12.7565 11.411 12.6955 11.3356 12.6189C11.2602 12.5422 11.2007 12.4513 11.1605 12.3515C11.1203 12.2517 11.1003 12.145 11.1016 12.0374C11.1023 11.9305 11.1239 11.8249 11.1654 11.7264C11.2069 11.6279 11.2674 11.5385 11.3434 11.4634C11.4194 11.3883 11.5095 11.3289 11.6085 11.2886C11.7074 11.2483 11.8134 11.2279 11.9202 11.2285C12.0278 11.2281 12.1345 11.2491 12.2339 11.2902C12.3333 11.3314 12.4236 11.3918 12.4995 11.4681C12.5753 11.5444 12.6353 11.635 12.6759 11.7347C12.7165 11.8343 12.7369 11.9411 12.7359 12.0487Z" fill="#2563C0"/>
<path fill-rule="evenodd" clip-rule="evenodd" d="M12.5152 12.9292C12.5666 12.8482 12.5977 12.7556 12.6528 12.6757C12.7046 12.6037 12.7139 12.5988 12.7766 12.6573C12.7867 12.6675 12.8017 12.6836 12.8167 12.6615C12.8228 12.6561 12.8298 12.6518 12.8373 12.6487C12.9547 12.672 12.8489 12.7338 12.8606 12.7732C12.8748 12.7432 12.9033 12.7413 12.9311 12.7507C12.9603 12.7601 12.9539 12.7833 12.9442 12.8047C12.9363 12.8148 12.9251 12.8197 12.9142 12.8265L12.8834 12.873C12.9258 12.8955 12.9832 12.8422 13.0109 12.8928C13.0233 12.9183 12.9817 12.9341 12.9618 12.9588C12.9734 12.9645 12.9817 12.9712 12.9918 12.9738C13.0102 12.9795 13.0349 12.9802 13.0387 13.0005C13.0409 13.0241 13.0162 13.0365 12.9974 13.0466C12.8947 13.098 12.7829 13.1115 12.6697 13.1242C12.6442 13.1272 12.6134 13.1141 12.5977 13.1471L12.5984 13.1456L12.5827 13.1272C12.5684 13.1115 12.5733 13.0931 12.5894 13.0893C12.6453 13.0758 12.5774 13.0751 12.5876 13.0668C12.5816 13.0626 12.5758 13.0581 12.5703 13.0533C12.5467 13.0353 12.5201 13.0211 12.5058 12.9933C12.5013 12.9825 12.4994 12.9709 12.5002 12.9592C12.5021 12.9472 12.5058 12.9367 12.5152 12.9292Z" fill="#016601"/>
<path fill-rule="evenodd" clip-rule="evenodd" d="M12.566 11.0983C12.6189 11.1182 12.6328 11.0563 12.6692 11.0398C12.704 11.024 12.7085 11.0312 12.719 11.0522C12.748 11.1025 12.7635 11.1595 12.764 11.2175C12.7798 11.2337 12.8023 11.2168 12.8192 11.2288L12.8867 11.288C12.8953 11.2532 12.8765 11.2138 12.9073 11.1872C12.9358 11.1815 12.9418 11.2577 12.9909 11.2007C13.0123 11.1748 13.004 11.2483 13.0333 11.2584C13.0494 11.2982 13.0295 11.3417 13.0468 11.3803L13.046 11.4144C13.0318 11.4459 13.0468 11.4808 13.0355 11.5127C12.9733 11.51 13.0254 11.4572 13.0025 11.4365C13.004 11.4392 13.0074 11.4414 13.0063 11.4433C12.9883 11.4883 13.0333 11.5423 12.9984 11.576C12.9628 11.6124 12.9208 11.5367 12.8758 11.5659C12.7895 11.5149 12.6913 11.4763 12.665 11.3623C12.668 11.3601 12.6707 11.3574 12.6729 11.3544C12.6823 11.3465 12.6984 11.3435 12.6928 11.3263C12.6842 11.3158 12.6729 11.3079 12.6643 11.2989C12.6429 11.2929 12.6212 11.2892 12.6005 11.2828C12.506 11.252 12.5015 11.2445 12.53 11.1718C12.5203 11.1369 12.5679 11.1298 12.566 11.0983Z" fill="#026502"/>
<path fill-rule="evenodd" clip-rule="evenodd" d="M12.0977 13.2931C12.0452 13.3257 12.0358 13.3501 12.1026 13.3823C12.1817 13.4206 12.2571 13.4172 12.3362 13.3909C12.3647 13.3816 12.394 13.3737 12.424 13.3643C12.3932 13.4817 12.241 13.5604 12.1468 13.4933C12.0242 13.4048 11.9282 13.4007 11.7977 13.4862C11.6638 13.5728 11.5258 13.5034 11.4966 13.3632C11.5041 13.3516 11.515 13.3482 11.5273 13.3474C11.5701 13.3501 11.6065 13.3692 11.6447 13.3849C11.704 13.4116 11.7565 13.3943 11.809 13.3666C11.8491 13.3459 11.8348 13.3291 11.8075 13.3088C11.7655 13.2747 11.7145 13.2796 11.6661 13.2732C11.5956 13.2616 11.5247 13.2706 11.4535 13.2668C11.431 13.2649 11.4122 13.2522 11.3886 13.2522C11.3743 13.2042 11.4171 13.2064 11.4392 13.2001C11.506 13.1806 11.5725 13.1623 11.6387 13.1453C11.7197 13.1221 11.7696 13.1918 11.836 13.2094C11.8461 13.2136 11.8588 13.2151 11.8652 13.2222C11.9308 13.2837 12.0002 13.3013 12.0771 13.2436C12.1206 13.2447 12.1105 13.2687 12.0977 13.2931Z" fill="#026602"/>
<path fill-rule="evenodd" clip-rule="evenodd" d="M12.8328 12.6628H12.8182C12.817 12.6471 12.8162 12.6312 12.816 12.6152C12.8042 12.5514 12.8036 12.4861 12.8141 12.4221C12.8152 12.3943 12.8085 12.3651 12.8366 12.3467C12.846 12.3373 12.8565 12.3366 12.8681 12.3411C12.8823 12.3523 12.8902 12.3688 12.8951 12.3853C12.8966 12.3838 12.8925 12.3966 12.8981 12.3853C12.896 12.3729 12.8909 12.3611 12.8831 12.3512C12.8748 12.3347 12.8452 12.3246 12.8666 12.2983C12.8943 12.2822 12.9217 12.2904 12.9487 12.2983C12.9855 12.2991 13.0016 12.3298 13.0282 12.3474C13.0781 12.3538 13.0781 12.3906 13.0773 12.4281C13.0672 12.4566 13.0732 12.4716 13.104 12.4588C13.128 12.4487 13.1452 12.4217 13.1771 12.4247C13.197 12.4517 13.1771 12.4757 13.1703 12.5031C13.194 12.5241 13.2311 12.4723 13.2472 12.5091C13.2622 12.5439 13.2311 12.5713 13.2097 12.5949C13.1437 12.6684 13.083 12.7479 12.984 12.7794C12.9562 12.7911 12.9618 12.7468 12.9341 12.7517C12.8658 12.7637 12.8696 12.7281 12.8895 12.6812C12.897 12.6654 12.8895 12.6587 12.8733 12.6463C12.8403 12.6216 12.8501 12.6688 12.8328 12.6628Z" fill="#016601"/>
<path fill-rule="evenodd" clip-rule="evenodd" d="M11.4795 10.9664C11.4857 10.9712 11.4926 10.9759 11.5001 10.9807C11.5455 10.9739 11.5871 10.9556 11.6329 10.9496C11.652 10.9563 11.6557 10.9751 11.6651 10.9893C11.706 10.9859 11.7371 11.0317 11.7825 11.0137C11.8001 11.0077 11.8046 11.0167 11.8009 11.0336L11.7225 11.0516C11.6865 11.0583 11.6816 11.1078 11.6407 11.1063C11.6336 11.1063 11.6272 11.0996 11.6194 11.1022C11.6266 11.1055 11.6333 11.1099 11.6392 11.1153C11.6434 11.1266 11.6449 11.1431 11.6366 11.1457C11.586 11.1558 11.6441 11.1599 11.6374 11.1678C11.6194 11.2218 11.5642 11.2027 11.5331 11.2072C11.4581 11.2199 11.3981 11.2799 11.3329 11.2807C11.3092 11.2649 11.3145 11.2848 11.3171 11.2728C11.3179 11.2709 11.3197 11.2728 11.3242 11.2743C11.3449 11.2807 11.3587 11.2919 11.3535 11.3163C11.3404 11.3279 11.325 11.3294 11.3085 11.3272C11.2635 11.3171 11.2166 11.3129 11.1701 11.3081C11.163 11.3073 11.1559 11.3032 11.1491 11.3002C11.1448 11.2936 11.1427 11.2859 11.1431 11.2781C11.1611 11.2391 11.1937 11.2121 11.2204 11.1813C11.2714 11.1363 11.2721 11.0673 11.3029 11.0129C11.3452 10.9811 11.355 10.9271 11.3947 10.8828C11.4049 10.9229 11.4289 10.9406 11.4675 10.9297C11.4795 10.9394 11.4735 10.9556 11.4795 10.9664Z" fill="#064C06"/>
<path fill-rule="evenodd" clip-rule="evenodd" d="M13.0003 11.9283C12.9381 11.8882 12.895 11.8308 12.8545 11.7708C12.8425 11.7524 12.8245 11.7314 12.8361 11.7097C12.8545 11.6782 12.8792 11.7172 12.9096 11.7082L12.8938 11.6362C12.8526 11.6463 12.8147 11.6812 12.7671 11.6497C12.7907 11.6006 12.8353 11.5904 12.8811 11.5807C12.9047 11.5822 12.9216 11.5957 12.9403 11.6066C12.9578 11.6191 12.9714 11.6364 12.9793 11.6564C12.9752 11.6669 12.982 11.6527 12.9835 11.6632C12.984 11.6677 12.984 11.6658 12.9835 11.6576C12.9835 11.6306 12.97 11.5957 13.0183 11.5957L13.0626 11.6534C13.0888 11.6377 13.0742 11.6066 13.087 11.5874C13.0948 11.5773 13.1068 11.5567 13.1155 11.5717C13.1387 11.6111 13.1526 11.6099 13.1897 11.5826C13.2133 11.5661 13.2167 11.6096 13.2175 11.6279C13.2256 11.7183 13.2137 11.8094 13.1826 11.8946C13.1485 11.9013 13.1575 11.8739 13.1575 11.8582C13.1561 11.8103 13.1558 11.7624 13.1567 11.7146C13.144 11.7847 13.1758 11.8706 13.1421 11.9516C13.1375 11.959 13.1305 11.9645 13.1222 11.9673C13.084 11.9639 13.0645 11.9422 13.0585 11.9054C13.0427 11.9152 13.0427 11.9786 13.0003 11.9283Z" fill="#026602"/>
<path fill-rule="evenodd" clip-rule="evenodd" d="M10.9838 12.2475C10.9838 12.2582 10.9842 12.2685 10.9849 12.2782C10.9808 12.3307 10.9932 12.3821 10.9913 12.4342C10.9894 12.4864 10.9857 12.537 10.9999 12.5872C11.0131 12.633 10.9891 12.672 10.9801 12.7129C10.978 12.7204 10.9737 12.7271 10.9677 12.732C10.9482 12.7317 10.9292 12.7259 10.913 12.7151C10.8968 12.7043 10.884 12.6891 10.8762 12.6712C10.8758 12.6639 10.8764 12.6566 10.8781 12.6495C10.8931 12.6052 10.8387 12.5846 10.8424 12.5445C10.8427 12.537 10.8446 12.5297 10.8481 12.5231C10.8608 12.5055 10.8732 12.4871 10.8901 12.4721C10.8979 12.4455 10.9073 12.417 10.9092 12.4057C10.9081 12.4147 10.8953 12.4406 10.8923 12.4691C10.8432 12.4991 10.8514 12.4436 10.8323 12.4294C10.8289 12.4224 10.8267 12.4149 10.8256 12.4072C10.8259 12.396 10.8305 12.3853 10.8383 12.3772C10.8601 12.3217 10.8049 12.279 10.8106 12.2505C10.8057 12.2779 10.8526 12.3202 10.8424 12.3724C10.7734 12.4406 10.7892 12.3405 10.7599 12.3304C10.7551 12.3246 10.7515 12.3178 10.7494 12.3105C10.7464 12.2947 10.7521 12.2805 10.7573 12.2662C10.7843 12.213 10.7142 12.1646 10.7509 12.1129C10.7708 12.0859 10.7573 12.0551 10.7588 12.0311C10.7616 12.0556 10.7613 12.0802 10.7581 12.1046C10.7464 12.1211 10.7314 12.1174 10.7157 12.1125C10.6332 12.0649 10.7172 12.0292 10.7251 11.9872C10.7464 11.9666 10.7573 11.9325 10.7967 11.9381C10.8207 11.9929 10.8627 11.9497 10.8968 11.9572C10.9433 12.0349 10.9726 12.1132 10.9111 12.198C10.9017 12.2374 10.8676 12.27 10.8758 12.312C10.8796 12.294 10.8721 12.2704 10.8904 12.252C10.9111 12.2314 10.8957 12.1777 10.9497 12.1912C10.9606 12.1991 10.9628 12.2111 10.9621 12.2235C10.947 12.2499 10.9404 12.2802 10.9429 12.3105C10.9463 12.2914 10.9377 12.2621 10.9628 12.243C10.9708 12.2405 10.9778 12.242 10.9838 12.2475Z" fill="#034003"/>
<path fill-rule="evenodd" clip-rule="evenodd" d="M10.8147 11.345C10.8188 11.2786 10.8256 11.2115 10.8447 11.1406C10.8631 11.2107 10.8226 11.2809 10.8661 11.3416C10.8782 11.3648 10.8809 11.3919 10.8736 11.417C10.8806 11.3914 10.8783 11.3642 10.8672 11.3401C10.8698 11.3037 10.8653 11.2666 10.883 11.2318C10.8902 11.2265 10.8976 11.226 10.9051 11.2303C10.922 11.2501 10.9242 11.2745 10.9298 11.2985C10.9328 11.3184 10.9238 11.3356 10.9163 11.3532C10.9362 11.3326 10.9313 11.2857 10.979 11.2947C11.0075 11.3319 10.9688 11.3499 10.9598 11.3746C10.9463 11.3803 10.9707 11.3848 10.9636 11.3761C10.9606 11.3726 10.9615 11.37 10.9662 11.3683C10.9763 11.3608 10.9861 11.3641 10.9955 11.369C11.0013 11.374 11.0055 11.3807 11.0075 11.3881C11.0056 11.4237 10.9868 11.459 11.0146 11.4943C11.021 11.5066 11.0273 11.5216 11.0187 11.5366C10.9925 11.5535 10.9625 11.5603 10.9336 11.5726C10.9257 11.5734 10.919 11.57 10.9122 11.5666C10.9006 11.5542 10.8923 11.5415 10.8923 11.5415C10.91 11.5666 10.8781 11.6143 10.9085 11.6548C10.9523 11.708 10.8755 11.7286 10.8792 11.7706C10.8661 11.8396 10.8601 11.8434 10.8215 11.8108C10.8186 11.8005 10.818 11.7898 10.8196 11.7793C10.8215 11.7699 10.8267 11.7601 10.826 11.75C10.8215 11.7564 10.8245 11.7657 10.8181 11.7721C10.8053 11.7875 10.7945 11.8006 10.7746 11.8033C10.7585 11.7999 10.7502 11.7883 10.7397 11.7781C10.733 11.7697 10.7288 11.7596 10.7277 11.7489C10.7311 11.7252 10.7352 11.702 10.7277 11.6787C10.7252 11.6736 10.7239 11.668 10.724 11.6623C10.7262 11.639 10.7112 11.6566 10.7041 11.6529C10.6981 11.6502 10.6932 11.6454 10.6906 11.6394C10.6763 11.615 10.6955 11.5895 10.6872 11.5659L10.6835 11.5025C10.6595 11.4474 10.6966 11.4582 10.7273 11.4624C10.7506 11.4459 10.73 11.4125 10.7521 11.3964C10.7851 11.399 10.775 11.4219 10.7742 11.4297C10.7633 11.3982 10.7941 11.3735 10.8147 11.345Z" fill="#043D04"/>
<path fill-rule="evenodd" clip-rule="evenodd" d="M10.7346 11.7453L10.7511 11.7637C10.7823 11.844 10.8006 11.9231 10.7346 11.9966C10.7583 12.0337 10.6409 12.0498 10.7185 12.0963C10.7384 12.1575 10.7789 12.2115 10.7688 12.2793L10.7511 12.3123L10.744 12.3191C10.7346 12.3247 10.7346 12.3333 10.7346 12.3435C10.7339 12.3585 10.7305 12.3727 10.7185 12.3825C10.6563 12.3491 10.6379 12.2823 10.6008 12.2295C10.6143 12.2002 10.5779 12.1897 10.5794 12.1653C10.5811 12.1595 10.5842 12.1541 10.5885 12.1497C10.5927 12.1454 10.598 12.1421 10.6038 12.1402C10.6236 12.138 10.6379 12.156 10.6641 12.1545C10.6615 12.084 10.6274 12.0228 10.6086 11.9576L10.591 11.9171C10.5816 11.895 10.5663 11.874 10.5719 11.8466C10.5839 11.8095 10.5126 11.7911 10.549 11.7472C10.5648 11.7345 10.5805 11.7412 10.5966 11.7472C10.6514 11.751 10.6053 11.712 10.6173 11.6981C10.6105 11.6846 10.6165 11.6613 10.6236 11.6613C10.6585 11.6613 10.6529 11.6298 10.6656 11.613C10.6971 11.6036 10.6878 11.6373 10.7013 11.6478H10.7031C10.7114 11.6572 10.7253 11.6565 10.7346 11.664C10.7405 11.6767 10.7435 11.6906 10.7435 11.7046C10.7435 11.7187 10.7405 11.7326 10.7346 11.7453Z" fill="#043A04"/>
<path fill-rule="evenodd" clip-rule="evenodd" d="M10.984 11.296C10.9323 11.3009 10.9447 11.3624 10.9072 11.3815C10.8899 11.35 10.9207 11.323 10.9165 11.2945C10.9045 11.2536 10.9038 11.2139 10.9323 11.1798C10.9346 11.175 10.9363 11.1699 10.9375 11.1648C10.9754 11.1663 10.9507 11.1989 10.9623 11.2124C10.9657 11.2154 10.9552 11.2353 10.9724 11.2233C10.9769 11.2199 10.9792 11.2139 10.9818 11.2098C10.9818 11.2041 10.9825 11.2011 10.987 11.1963C10.9957 11.1884 11.0092 11.2124 11.0084 11.1996C11.0043 11.1284 11.0534 11.1306 11.101 11.1299C11.1224 11.0988 11.1828 11.122 11.1865 11.0673C11.1896 11.0603 11.1947 11.0544 11.2012 11.0504L11.2357 10.9975C11.2619 10.9855 11.2833 10.9956 11.3039 11.0099L11.3024 11.0118C11.326 11.02 11.2469 11.0658 11.3193 11.059C11.3384 11.0583 11.3294 11.0774 11.3223 11.0808C11.2754 11.1066 11.2702 11.1633 11.2345 11.1963C11.1978 11.2154 11.1412 11.2139 11.1513 11.2795L11.1505 11.2908C11.1457 11.3215 11.1187 11.3238 11.1078 11.3406C11.1314 11.3144 11.164 11.3286 11.1937 11.3264C11.203 11.3264 11.2128 11.323 11.2214 11.3208C11.2135 11.3208 11.2053 11.323 11.1967 11.323C11.1802 11.323 11.1637 11.3208 11.1682 11.2964C11.215 11.2885 11.2612 11.2878 11.3028 11.3155C11.3122 11.3346 11.3542 11.3013 11.3489 11.3448C11.3253 11.3676 11.3114 11.4048 11.2679 11.3961C11.2514 11.4155 11.2307 11.4309 11.2074 11.4412C11.1841 11.4515 11.1587 11.4563 11.1333 11.4554C11.0857 11.4374 11.0219 11.4445 11.0005 11.3796H11.0013C10.9897 11.3376 11.0365 11.3211 11.0425 11.2851C11.044 11.275 11.0452 11.2863 11.0414 11.278C11.0377 11.2671 11.0369 11.2844 11.0305 11.2836C11.0189 11.2893 11.0065 11.2911 10.9942 11.2945C10.9909 11.2945 10.9875 11.295 10.984 11.296Z" fill="#094309"/>
<path fill-rule="evenodd" clip-rule="evenodd" d="M12.5154 12.9297V12.9612C12.5053 12.9732 12.491 12.9754 12.476 12.9754C12.437 12.9822 12.419 13.0006 12.4352 13.0414C12.4364 13.0451 12.4368 13.049 12.4363 13.0528C12.4359 13.0566 12.4346 13.0603 12.4325 13.0635C12.3542 13.1055 12.2702 13.137 12.191 13.176C12.1678 13.1809 12.1457 13.1978 12.1235 13.176C12.1742 13.0534 12.2552 12.9544 12.3564 12.8697C12.362 12.8652 12.3695 12.8588 12.377 12.858C12.4145 12.8539 12.3808 12.7846 12.4277 12.7988C12.4723 12.8123 12.4922 12.8558 12.5068 12.8986C12.51 12.9081 12.5129 12.9184 12.5154 12.9297Z" fill="#016501"/>
<path fill-rule="evenodd" clip-rule="evenodd" d="M12.1837 13.1591C12.2647 13.1164 12.3464 13.0766 12.4334 13.0481C12.4473 13.0222 12.4728 13.023 12.4972 13.0215C12.5265 13.0235 12.5553 13.0305 12.5823 13.0421C12.6074 13.0954 12.5538 13.1021 12.5332 13.1291L12.4848 13.1599C12.4515 13.194 12.405 13.2082 12.3648 13.2311C12.3573 13.2346 12.3506 13.2375 12.3446 13.2397C12.312 13.2488 12.2798 13.2593 12.2482 13.2712C12.2402 13.2742 12.2322 13.2764 12.2242 13.2776C12.2133 13.2787 12.2276 13.2795 12.216 13.2795C12.1777 13.2769 12.1248 13.2945 12.1125 13.2435C12.1012 13.1985 12.1514 13.1812 12.1837 13.1591Z" fill="#016601"/>
<path fill-rule="evenodd" clip-rule="evenodd" d="M12.5659 11.0968C12.6112 11.15 12.5452 11.1482 12.5295 11.1703C12.5081 11.1354 12.4804 11.1227 12.4369 11.1219C12.36 11.1178 12.2794 11.1125 12.2085 11.0634C12.2385 11.0349 12.27 11.045 12.2985 11.0383C12.2816 11.0027 12.2392 10.9982 12.231 10.9614C12.2587 10.9322 12.2824 10.9689 12.3142 10.9592L12.2816 10.8789C12.3994 10.9299 12.4766 10.9955 12.5306 11.0867C12.5437 11.1077 12.5505 11.1069 12.5659 11.0968Z" fill="#086608"/>
<path fill-rule="evenodd" clip-rule="evenodd" d="M12.48 13.1816C12.5115 13.1903 12.5433 13.1974 12.5741 13.2075C12.5985 13.2169 12.6303 13.2251 12.6296 13.2593C12.6277 13.2885 12.5985 13.2994 12.576 13.3069C12.4237 13.3504 12.2707 13.3643 12.1211 13.2893C12.1563 13.2465 12.2111 13.2908 12.2508 13.2626H12.2501C12.2823 13.2514 12.3191 13.2473 12.3498 13.2293C12.3956 13.2188 12.4301 13.1816 12.48 13.1816Z" fill="#046604"/>
<path fill-rule="evenodd" clip-rule="evenodd" d="M10.9466 12.9968L10.9038 12.9889C10.9387 12.9311 11.0013 12.9701 11.0463 12.9488C11.0547 12.9461 11.0634 12.945 11.0722 12.9454C11.1007 12.9518 11.1352 12.951 11.1367 12.993C11.1048 13.0151 11.0677 12.993 11.0171 13.0121C11.0662 12.9971 11.0988 13.0088 11.1296 12.9994C11.1532 12.9694 11.1873 12.9938 11.2147 12.9836C11.2227 12.9824 11.2306 12.9819 11.2383 12.9821C11.2844 12.993 11.3321 13.0001 11.3729 13.0271C11.3747 13.0345 11.3742 13.0422 11.3714 13.0493C11.3467 13.0755 11.3178 13.0744 11.2724 13.0526C11.3231 13.0834 11.3602 13.0613 11.3954 13.0691C11.4138 13.0733 11.4359 13.0804 11.4344 13.104C11.4322 13.1231 11.4123 13.1276 11.3966 13.1295C11.3471 13.1359 11.2964 13.1303 11.2488 13.1486C11.1903 13.1723 11.1551 13.1066 11.1003 13.1119C11.0621 13.0834 11.0051 13.1325 10.9721 13.0804C11.0028 13.0744 11.0381 13.0736 11.0647 13.0586C11.0898 13.0451 11.0568 13.0485 11.0527 13.0414C11.0167 13.029 10.9661 13.0496 10.9466 12.9968Z" fill="#073D07"/>
<path fill-rule="evenodd" clip-rule="evenodd" d="M12.9657 12.2613C12.9207 12.1829 12.9065 12.0959 12.8975 12.0104C12.8904 11.9429 12.9579 11.9587 12.9991 11.9512C13.0389 11.959 13.0666 11.9845 13.0902 12.0153C13.0939 12.0243 13.0951 12.0342 13.0938 12.0439C13.0925 12.0535 13.0887 12.0627 13.0827 12.0704C13.0636 12.0974 13.0689 12.1289 13.0629 12.1589C13.0621 12.1668 13.0591 12.175 13.0572 12.1825C13.049 12.2208 13.0621 12.265 13.0164 12.307C13.0092 12.2335 12.98 12.1762 12.9954 12.1027C12.974 12.1717 13.0171 12.2275 13.0047 12.286C12.9657 12.3187 12.9804 12.268 12.9657 12.2613Z" fill="#096809"/>
<path fill-rule="evenodd" clip-rule="evenodd" d="M11.2687 12.8112C11.3782 12.8584 11.473 12.9252 11.5563 13.0088C11.5585 13.0294 11.5825 13.0463 11.5664 13.0695C11.5158 13.1228 11.4873 13.0324 11.4367 13.0482C11.4239 13.0523 11.392 13.0332 11.3722 13.0189C11.3523 13.0088 11.3399 12.9889 11.3223 12.9754C11.3058 12.9612 11.2972 12.9387 11.2799 12.9248C11.2705 12.9207 11.26 12.9184 11.2514 12.9139C11.2232 12.8908 11.2023 12.8599 11.1914 12.825C11.1937 12.7879 11.218 12.7793 11.2338 12.8085C11.2514 12.8419 11.2589 12.7928 11.2687 12.8112Z" fill="#0D4D0D"/>
<path fill-rule="evenodd" clip-rule="evenodd" d="M11.2687 12.8121C11.2406 12.8342 11.2919 12.8451 11.2751 12.8672C11.2436 12.8623 11.2421 12.829 11.2229 12.8132C11.2038 12.7963 11.2031 12.8162 11.2008 12.8282C11.2098 12.8466 11.1989 12.8567 11.1862 12.8672C11.1788 12.869 11.1711 12.8684 11.1641 12.8657C11.1566 12.8616 11.1532 12.8421 11.1404 12.8616C11.1357 12.8665 11.1297 12.87 11.1232 12.8717C11.1099 12.8734 11.0965 12.8708 11.0848 12.8644C11.0731 12.858 11.0637 12.8481 11.0579 12.8361C11.0554 12.8288 11.0533 12.8216 11.0516 12.8143C10.9919 12.7408 10.9912 12.6568 11.0047 12.5706C11.0231 12.5357 10.9912 12.4813 11.0489 12.4648C11.0529 12.4661 11.0543 12.4687 11.0531 12.4727C11.0587 12.4933 11.0609 12.5147 11.0666 12.5353C11.0714 12.559 11.0823 12.5811 11.0849 12.6058C11.0872 12.6362 11.0943 12.6655 11.0928 12.6955C11.0921 12.7071 11.0913 12.6928 11.0921 12.7037C11.0962 12.7022 11.0939 12.6973 11.0962 12.6947C11.1213 12.655 11.1438 12.6913 11.1671 12.6977L11.2687 12.8121Z" fill="#054105"/>
<path fill-rule="evenodd" clip-rule="evenodd" d="M11.1164 13.0971C11.1648 13.0764 11.1839 13.1604 11.2349 13.1293C11.2593 13.1529 11.2874 13.1387 11.314 13.1353C11.4186 13.1233 11.5206 13.1511 11.6245 13.1533L11.6339 13.1627L11.3845 13.2411C11.374 13.2643 11.3489 13.2459 11.3343 13.2594L11.2679 13.2827C11.2594 13.2762 11.2591 13.2696 11.2671 13.2628C11.2754 13.2553 11.2904 13.2508 11.2915 13.2418C11.2945 13.2279 11.2806 13.2268 11.2701 13.2279C11.2319 13.2328 11.197 13.2538 11.1426 13.2444C11.1858 13.2219 11.2191 13.2051 11.2611 13.1826L11.1003 13.1469C11.0838 13.1548 11.0669 13.1604 11.0669 13.1312C11.071 13.1287 11.0756 13.127 11.0804 13.1263C11.0908 13.1147 11.103 13.1049 11.1164 13.0971Z" fill="#0D4A0D"/>
<path fill-rule="evenodd" clip-rule="evenodd" d="M13.1328 12.0754C13.1483 12.0564 13.1641 12.0376 13.1801 12.0191C13.2041 11.9925 13.224 11.9801 13.2285 12.0319C13.2292 12.0427 13.2198 12.0585 13.2446 12.0585C13.3061 12.0619 13.3076 12.0641 13.284 12.1252C13.2547 12.2002 13.212 12.267 13.1636 12.3304C13.14 12.3004 13.14 12.3004 13.1741 12.2426C13.155 12.249 13.1595 12.2884 13.1328 12.2782C13.1092 12.2689 13.1092 12.2419 13.1111 12.2205C13.1137 12.1796 13.128 12.138 13.1197 12.0971C13.1202 12.0927 13.1216 12.0885 13.1239 12.0848C13.1261 12.081 13.1292 12.0778 13.1328 12.0754Z" fill="#076707"/>
<path fill-rule="evenodd" clip-rule="evenodd" d="M10.8682 11.7643C10.8408 11.7384 10.8633 11.7253 10.8824 11.7159C10.9068 11.7035 10.9151 11.6893 10.9008 11.6638C10.8641 11.624 10.8772 11.5918 10.9177 11.5648C10.9229 11.5648 10.9283 11.5644 10.9338 11.5637C10.9601 11.5494 10.9908 11.5445 11.0182 11.5314C11.0114 11.5202 11.0073 11.5097 11.0006 11.498C11.0006 11.4553 11.0358 11.4654 11.0583 11.4587C11.0932 11.4575 11.1281 11.4519 11.1622 11.4575C11.1707 11.4633 11.1719 11.4705 11.1659 11.4793C11.1269 11.5037 11.1067 11.5419 11.0876 11.5813C11.0452 11.6229 11.0133 11.6762 10.9623 11.7088C10.9376 11.7309 10.9158 11.7594 10.8794 11.7639L10.8682 11.7643Z" fill="#034503"/>
<path fill-rule="evenodd" clip-rule="evenodd" d="M11.0674 12.8122L11.0681 12.8272C11.0389 12.8786 11.0048 12.8186 10.9748 12.8313C10.9688 12.8346 10.9626 12.8375 10.9564 12.84C10.937 12.8457 10.9172 12.8498 10.8971 12.8523C10.89 12.8515 10.8831 12.8496 10.8765 12.8467C10.8383 12.8182 10.8473 12.7477 10.7824 12.7451C10.7763 12.7405 10.7713 12.7346 10.7678 12.7278C10.7385 12.6768 10.6755 12.6776 10.6365 12.6427C10.6271 12.6105 10.6579 12.6247 10.668 12.6142C10.6738 12.6132 10.6791 12.612 10.6841 12.6105C10.7348 12.6026 10.7711 12.6397 10.8154 12.6506C10.8229 12.6631 10.8321 12.6647 10.8431 12.6555C10.8923 12.6656 10.9039 12.7425 10.9684 12.7275C11.0175 12.7368 11.0366 12.7815 11.0674 12.8122Z" fill="#053E05"/>
<path fill-rule="evenodd" clip-rule="evenodd" d="M10.9464 12.1953C10.9018 12.1975 10.9288 12.2493 10.8996 12.2616C10.8941 12.2515 10.8911 12.2401 10.891 12.2285C10.8909 12.217 10.8935 12.2055 10.8988 12.1953C10.9524 12.1128 10.9146 12.0366 10.8827 11.9609C10.8718 11.9054 10.9311 11.8656 10.9138 11.8064C10.9067 11.7865 10.9453 11.7843 10.9671 11.7812C10.9788 11.7818 10.9898 11.7869 10.9978 11.7955C11.0184 11.8221 10.9986 11.8503 10.9903 11.8705C10.9588 11.9601 10.9588 12.0509 10.9644 12.1431C10.9509 12.1581 10.9693 12.1844 10.9464 12.1953Z" fill="#133813"/>
<path fill-rule="evenodd" clip-rule="evenodd" d="M13.1325 12.0977C13.1779 12.1525 13.1085 12.2087 13.1366 12.2631C13.1591 12.2631 13.1558 12.2323 13.1749 12.226C13.2008 12.2638 13.1276 12.2916 13.1663 12.3295V12.346C13.1561 12.3666 13.1291 12.3628 13.1164 12.3808C13.1006 12.3943 13.077 12.4026 13.077 12.4285C13.0643 12.4018 13.0628 12.3628 13.0159 12.3715C13.0129 12.3471 12.9814 12.3298 12.9968 12.2998C13.0106 12.2316 12.9615 12.166 12.9923 12.0898C13.0024 12.1581 13.0121 12.2196 13.0215 12.2852C13.0474 12.244 13.0129 12.1956 13.0481 12.1633C13.083 12.1975 13.0631 12.2425 13.0759 12.2875C13.1063 12.2245 13.0826 12.1487 13.1325 12.0977Z" fill="#045204"/>
<path fill-rule="evenodd" clip-rule="evenodd" d="M13.1326 12.0975L13.0981 12.3161C13.0955 12.3311 13.0887 12.3431 13.0719 12.3413C13.0557 12.3405 13.0497 12.327 13.0497 12.312C13.049 12.2629 13.049 12.2123 13.0479 12.1635C13.0711 12.1324 13.0437 12.0945 13.0651 12.0634C13.0842 12.0518 13.082 12.0326 13.082 12.0143C13.0745 11.985 13.0771 11.9629 13.1142 11.9629H13.1154C13.1326 11.9764 13.1154 12 13.1304 12.0135L13.1352 12.0746C13.134 12.0819 13.1331 12.0895 13.1326 12.0975Z" fill="#006600"/>
<path fill-rule="evenodd" clip-rule="evenodd" d="M11.3511 11.3093C11.3402 11.2793 11.305 11.2857 11.2866 11.2722C11.4044 11.2444 11.5094 11.1762 11.632 11.1653C11.6511 11.1525 11.6605 11.166 11.671 11.1788C11.6751 11.1859 11.7115 11.1825 11.683 11.1938C11.6305 11.2144 11.5727 11.226 11.5169 11.2287C11.4614 11.2309 11.4591 11.3078 11.4025 11.2984C11.3894 11.3033 11.3796 11.3149 11.3669 11.319C11.359 11.3198 11.353 11.3175 11.3511 11.3093Z" fill="#375837"/>
<path fill-rule="evenodd" clip-rule="evenodd" d="M10.6012 12.2284C10.668 12.2577 10.6789 12.3301 10.7186 12.3788C10.7779 12.4171 10.7685 12.4508 10.7134 12.4823C10.7059 12.4856 10.698 12.4867 10.6897 12.4857C10.6785 12.4814 10.6714 12.4731 10.6684 12.4606C10.656 12.4298 10.6252 12.4163 10.6035 12.3923C10.5964 12.3687 10.5716 12.3533 10.5679 12.3282C10.5729 12.3207 10.5784 12.3138 10.5844 12.3076C10.6009 12.3034 10.62 12.3008 10.6027 12.2772C10.6012 12.2732 10.6004 12.2693 10.6001 12.2656C10.593 12.2521 10.5915 12.2397 10.6009 12.2266L10.6012 12.2284Z" fill="#125712"/>
<path fill-rule="evenodd" clip-rule="evenodd" d="M10.6213 11.9453C10.6397 11.9937 10.6611 12.0428 10.6742 12.0938C10.6813 12.1204 10.7215 12.1523 10.6787 12.1808C10.6405 12.2037 10.6311 12.1523 10.6045 12.1448C10.5936 12.1276 10.6071 12.1182 10.6172 12.1066C10.6165 12.0586 10.5681 12.0282 10.5696 11.9791C10.5606 11.9273 10.6033 11.9547 10.6213 11.9453Z" fill="#015C01"/>
<path fill-rule="evenodd" clip-rule="evenodd" d="M11.3365 13.2567C11.3493 13.239 11.3695 13.2432 11.3868 13.2383L11.4539 13.2432C11.5184 13.2664 11.5866 13.2417 11.6511 13.2552C11.6301 13.3234 11.5656 13.3208 11.515 13.3392C11.4899 13.3392 11.476 13.3114 11.4516 13.3099C11.41 13.2998 11.3725 13.3474 11.3271 13.3193L11.4201 13.2668C11.3898 13.2428 11.362 13.2627 11.3365 13.2567Z" fill="#176017"/>
<path fill-rule="evenodd" clip-rule="evenodd" d="M12.9329 11.6153C12.9219 11.6154 12.9112 11.6123 12.902 11.6064C12.8928 11.6004 12.8856 11.592 12.8811 11.582L12.8755 11.5662C12.9047 11.5583 12.9332 11.4916 12.9625 11.5662C12.9647 11.57 12.9764 11.5733 12.9839 11.5726C12.9962 11.5685 12.9989 11.5561 12.994 11.5467C12.9704 11.4991 13.0041 11.4578 13 11.4023C13.0274 11.4436 13 11.4848 13.0274 11.5133C13.0465 11.5291 13.0424 11.5448 13.0315 11.5625L13.018 11.5973C12.9779 11.6288 13.0109 11.675 12.9929 11.7132C12.973 11.7038 12.9767 11.6791 12.9651 11.663C12.9767 11.6311 12.9475 11.6285 12.9329 11.6153Z" fill="#095409"/>
<path fill-rule="evenodd" clip-rule="evenodd" d="M12.6691 13.1593C12.7374 13.1702 12.7689 13.2208 12.7932 13.2771C12.7974 13.2887 12.7854 13.3003 12.7741 13.3003C12.7085 13.3026 12.68 13.2527 12.6451 13.21C12.6387 13.2021 12.6346 13.1916 12.6294 13.1815C12.629 13.1496 12.6462 13.1511 12.6691 13.1593Z" fill="#116C11"/>
<path fill-rule="evenodd" clip-rule="evenodd" d="M12.9146 12.825C12.9209 12.8175 12.9254 12.8115 12.9322 12.8051C12.9446 12.7875 12.9629 12.7868 12.9828 12.7916C13.0357 12.8018 13.0927 12.7751 13.1433 12.8081C13.1594 12.8175 13.1846 12.8224 13.1816 12.8456C13.1771 12.8734 13.1508 12.8734 13.1287 12.8749C13.0942 12.8756 13.0642 12.8614 13.0342 12.8479C12.9959 12.8299 12.9584 12.8156 12.9146 12.825Z" fill="#126C12"/>
<path fill-rule="evenodd" clip-rule="evenodd" d="M10.7847 12.7285C10.8181 12.7428 10.8601 12.745 10.8766 12.7776C10.8837 12.7934 10.8601 12.8234 10.8845 12.8451C10.9085 12.8583 10.9437 12.8489 10.9557 12.8823C10.9565 12.8864 10.9559 12.8907 10.9539 12.8945C10.9519 12.8982 10.9487 12.9012 10.9449 12.9029C10.9164 12.9164 10.8972 12.8988 10.8766 12.8823C10.8567 12.8774 10.8346 12.8766 10.8181 12.8609C10.8076 12.8508 10.8181 12.8376 10.8162 12.8268C10.8024 12.799 10.7619 12.7949 10.7525 12.76C10.7427 12.7285 10.778 12.7435 10.7847 12.7285Z" fill="#196019"/>
<path fill-rule="evenodd" clip-rule="evenodd" d="M11.0499 12.4657C11.0142 12.4964 11.0551 12.5478 11.0191 12.5789C10.9775 12.5448 10.9992 12.4844 10.9685 12.4465C10.9764 12.391 10.9494 12.3314 10.9842 12.2793C11.0116 12.3389 11.0401 12.3993 11.0499 12.4657Z" fill="#2E482E"/>
<path fill-rule="evenodd" clip-rule="evenodd" d="M11.1018 11.1307C11.1025 11.1449 11.0939 11.1678 11.089 11.1655C11.0077 11.1243 11.0392 11.2098 11.0107 11.2312C11.0032 11.2207 10.9955 11.2093 10.9878 11.197C11.0084 11.1322 11.0144 11.0594 11.0763 11.0137C11.1022 11.0538 11.0602 11.0995 11.1018 11.1307Z" fill="#2D432D"/>
<path fill-rule="evenodd" clip-rule="evenodd" d="M10.6843 12.4774H10.6997C10.7533 12.4868 10.7972 12.5194 10.8512 12.5292C10.8583 12.5693 10.8935 12.5959 10.9089 12.6319C10.922 12.6638 10.8969 12.6462 10.8842 12.6435C10.8365 12.6327 10.8043 12.5869 10.7522 12.585C10.7352 12.5845 10.7239 12.5767 10.7184 12.5614C10.7105 12.5232 10.667 12.5232 10.6494 12.4954C10.649 12.4665 10.6644 12.4665 10.6843 12.4774Z" fill="#025D02"/>
<path fill-rule="evenodd" clip-rule="evenodd" d="M11.0506 12.9622C11.0067 13.0005 10.9471 12.9566 10.9021 12.9892C10.8656 12.979 10.8281 12.9681 10.7896 12.9566C10.8102 12.9367 10.8368 12.9559 10.8507 12.9424C10.8631 12.93 10.8421 12.9307 10.8353 12.9251C10.8631 12.8824 10.9051 12.9094 10.9399 12.9034C10.981 12.9138 11.019 12.934 11.0506 12.9622Z" fill="#196019"/>
<path fill-rule="evenodd" clip-rule="evenodd" d="M13.1966 11.8986C13.2281 11.875 13.2551 11.8416 13.2971 11.8318C13.3132 11.8288 13.3331 11.8225 13.3425 11.8393C13.3503 11.8543 13.3357 11.8701 13.3241 11.8817C13.2798 11.9252 13.2142 11.9271 13.164 11.9586C13.1332 11.9155 13.1673 11.9095 13.1966 11.8986Z" fill="#156D15"/>
<path fill-rule="evenodd" clip-rule="evenodd" d="M12.9826 12.7915C12.9651 12.7968 12.9482 12.8013 12.9319 12.805C12.9252 12.7105 12.8701 12.793 12.8389 12.7799C12.8337 12.7507 12.8558 12.7297 12.8667 12.706C12.8881 12.6637 12.8644 12.6603 12.8311 12.6603C12.8461 12.6494 12.8344 12.6104 12.8644 12.6209C12.8858 12.6273 12.9312 12.6288 12.9019 12.6794C12.8843 12.7094 12.8644 12.7642 12.9436 12.7327C12.9634 12.7248 12.9649 12.7285 12.9829 12.7777C12.981 12.7821 12.9809 12.787 12.9826 12.7915Z" fill="#074907"/>
<path fill-rule="evenodd" clip-rule="evenodd" d="M13.1157 12.3796C13.1228 12.3544 13.1382 12.3417 13.1656 12.3447C13.2038 12.3312 13.2398 12.3091 13.2837 12.3188C13.2991 12.3222 13.3216 12.3237 13.3238 12.3402C13.3276 12.3634 13.3062 12.3721 13.2878 12.3792C13.2308 12.3972 13.1735 12.3709 13.1157 12.3796Z" fill="#1E731E"/>
<path fill-rule="evenodd" clip-rule="evenodd" d="M13.0726 11.5381C13.0512 11.5174 13.0662 11.4972 13.0741 11.4781C13.0838 11.4582 13.0979 11.4408 13.1154 11.4274C13.1329 11.4139 13.1533 11.4047 13.175 11.4004C13.1799 11.3997 13.1934 11.4098 13.1934 11.4139C13.19 11.4619 13.154 11.4829 13.1191 11.5047C13.103 11.5141 13.0887 11.5272 13.0726 11.5381Z" fill="#1C711C"/>
<path fill-rule="evenodd" clip-rule="evenodd" d="M11.6703 11.1781L11.6313 11.1646C11.5556 11.1428 11.6816 11.1312 11.6347 11.1106C11.6302 11.1066 11.6288 11.1032 11.6306 11.1005C11.6323 11.0965 11.6339 11.0946 11.6354 11.0948C11.6722 11.0948 11.6771 11.0337 11.7224 11.0495L11.7494 11.0663C11.6823 11.0738 11.7206 11.1571 11.6703 11.1781Z" fill="#517251"/>
<path fill-rule="evenodd" clip-rule="evenodd" d="M11.5671 13.0603C11.5686 13.0419 11.5255 13.0326 11.557 13.0078C11.6115 13.0406 11.661 13.0789 11.7055 13.1229C11.6946 13.1529 11.6698 13.1511 11.6447 13.1511C11.6331 13.1494 11.6224 13.1441 11.614 13.1361C11.5971 13.1117 11.5742 13.0903 11.5671 13.0603Z" fill="#0F650F"/>
<path fill-rule="evenodd" clip-rule="evenodd" d="M10.7189 12.5631C10.7302 12.5676 10.7414 12.5726 10.7527 12.5781C10.7958 12.589 10.8284 12.6096 10.8183 12.6629C10.768 12.6606 10.7264 12.637 10.6848 12.6122C10.6798 12.602 10.6742 12.5914 10.6679 12.5804C10.6649 12.5631 10.6687 12.5545 10.6885 12.5605L10.7189 12.5631Z" fill="#076007"/>
<path fill-rule="evenodd" clip-rule="evenodd" d="M10.8147 11.3446C10.8346 11.3937 10.7465 11.4113 10.7877 11.4672C10.7585 11.4473 10.7761 11.414 10.7525 11.3982C10.7467 11.4077 10.7419 11.4072 10.7379 11.3967L10.7315 11.2816C10.7435 11.2422 10.7547 11.2715 10.7619 11.2835C10.7679 11.2943 10.7626 11.3142 10.7855 11.3135L10.8147 11.3446Z" fill="#313D31"/>
<path fill-rule="evenodd" clip-rule="evenodd" d="M13.1138 11.9628L13.0815 12.0142C13.0414 12.0104 13.0238 11.9752 12.999 11.9527C12.999 11.9447 12.9994 11.9369 13.0001 11.9294C13.0016 11.9302 13.0054 11.9328 13.0073 11.9328C13.0594 11.884 13.0868 11.9234 13.1138 11.9628Z" fill="#0E540E"/>
<path fill-rule="evenodd" clip-rule="evenodd" d="M11.6328 10.9467C11.5938 10.9808 11.5536 11.0078 11.5 10.9778C11.5146 10.8882 11.6039 10.9452 11.6429 10.9043C11.6391 10.9185 11.6358 10.9327 11.6328 10.9467Z" fill="#516E51"/>
<path fill-rule="evenodd" clip-rule="evenodd" d="M10.7316 11.4632C10.7144 11.4557 10.735 11.5138 10.7009 11.4815C10.696 11.4774 10.7065 11.4572 10.6889 11.468C10.6836 11.4722 10.6851 11.4879 10.6836 11.4988C10.6581 11.4437 10.6611 11.3897 10.6874 11.3105C10.7035 11.3578 10.7118 11.3848 10.7208 11.411C10.735 11.426 10.7556 11.4395 10.7316 11.4632Z" fill="#3F4D3F"/>
<path fill-rule="evenodd" clip-rule="evenodd" d="M13.1963 11.8997C13.1764 11.9154 13.1562 11.9289 13.1637 11.9597C13.152 11.9773 13.1258 11.9867 13.128 12.0137C13.1097 12.0013 13.113 11.9822 13.113 11.9631C13.1723 11.8839 13.1329 11.7887 13.152 11.6953C13.1839 11.7636 13.1363 11.8378 13.1813 11.8963C13.1868 11.8963 13.1918 11.8974 13.1963 11.8997Z" fill="#0F530F"/>
<path fill-rule="evenodd" clip-rule="evenodd" d="M11.0684 12.6129C11.0632 12.5907 11.0573 12.5684 11.0508 12.5462C11.0733 12.5353 11.0834 12.5548 11.0984 12.5638C11.0984 12.6204 11.1562 12.6478 11.1682 12.6981C11.1453 12.7329 11.125 12.6658 11.1018 12.6958C11.0763 12.6737 11.0819 12.6396 11.0684 12.6129Z" fill="#0C290C"/>
<path fill-rule="evenodd" clip-rule="evenodd" d="M10.6682 11.6115C10.6881 11.6606 10.6266 11.6625 10.6176 11.6966L10.5921 11.6404C10.585 11.6227 10.5767 11.604 10.5883 11.5864C10.612 11.5507 10.6161 11.622 10.639 11.5972C10.6566 11.583 10.6675 11.5856 10.6682 11.6115Z" fill="#2A3E2A"/>
<path fill-rule="evenodd" clip-rule="evenodd" d="M12.2502 13.2603C12.212 13.2982 12.1595 13.2603 12.1205 13.2869L12.0988 13.2918C12.0995 13.2719 12.1014 13.2524 12.0781 13.2427C12.099 13.2247 12.1146 13.2014 12.1231 13.1752C12.1431 13.1697 12.1631 13.1647 12.1831 13.1602C12.17 13.1935 12.1032 13.207 12.128 13.246C12.1512 13.2817 12.2086 13.2547 12.2502 13.2603Z" fill="#0A3A0A"/>
<path fill-rule="evenodd" clip-rule="evenodd" d="M12.8212 11.2279C12.8039 11.2328 12.8021 11.265 12.7796 11.2579C12.7612 11.2523 12.7653 11.2328 12.7661 11.2167C12.8043 11.1975 12.7912 11.1334 12.8486 11.1289C12.8767 11.1724 12.8092 11.1908 12.8212 11.2279Z" fill="#1F741F"/>
<path fill-rule="evenodd" clip-rule="evenodd" d="M11.6327 13.1449C11.6579 13.1464 11.6828 13.1394 11.7036 13.125L11.8356 13.2105C11.7936 13.2221 11.7666 13.194 11.7354 13.1745C11.7036 13.1531 11.6664 13.1647 11.6327 13.1629L11.6319 13.1621C11.6274 13.1579 11.6263 13.1542 11.6286 13.1512C11.6301 13.147 11.6314 13.1449 11.6327 13.1449Z" fill="#0F430F"/>
<path fill-rule="evenodd" clip-rule="evenodd" d="M11.2019 11.0683C11.2042 11.1474 11.1434 11.1241 11.1011 11.1316C11.1018 11.108 11.0969 11.0825 11.1243 11.0683L11.1281 11.0664C11.1322 11.0758 11.1374 11.0926 11.1389 11.0926C11.1614 11.0885 11.1614 11.0649 11.1708 11.0491C11.1907 11.0405 11.1941 11.0585 11.2019 11.0683Z" fill="#195419"/>
<path fill-rule="evenodd" clip-rule="evenodd" d="M10.9541 11.6975C10.9994 11.66 11.0445 11.6215 11.0895 11.582C11.0917 11.6405 11.0167 11.6563 11.0152 11.7137C11.0081 11.723 10.9969 11.7268 10.9849 11.726C10.9702 11.723 10.9575 11.7148 10.9541 11.6975Z" fill="#062106"/>
<path fill-rule="evenodd" clip-rule="evenodd" d="M10.6215 11.9461C10.6241 11.9874 10.5656 11.9367 10.5693 11.9802C10.5482 11.9567 10.5322 11.929 10.5225 11.8989C10.5317 11.8814 10.5457 11.8735 10.5645 11.8752C10.581 11.8831 10.5851 11.8996 10.5971 11.9124C10.614 11.9176 10.6185 11.9311 10.6215 11.9461Z" fill="#135013"/>
<path fill-rule="evenodd" clip-rule="evenodd" d="M10.9461 12.998C10.9761 13.028 11.0196 13.0217 11.0519 13.0423H10.8438C10.8779 13.0179 10.9236 13.0329 10.9461 12.998Z" fill="#353D35"/>
<path fill-rule="evenodd" clip-rule="evenodd" d="M11.1661 11.4782L11.1646 11.4599C11.1571 11.4566 11.1526 11.4516 11.1511 11.4449L11.2677 11.3965C11.2494 11.4141 11.3097 11.4171 11.276 11.4265C11.2359 11.4381 11.2122 11.4812 11.1661 11.4782Z" fill="#203120"/>
<path fill-rule="evenodd" clip-rule="evenodd" d="M12.6645 11.2998C12.6843 11.2961 12.705 11.2916 12.7155 11.3167C12.7091 11.3437 12.6836 11.3519 12.6645 11.3658L12.6656 11.3636C12.6465 11.3714 12.63 11.3921 12.606 11.3737C12.6056 11.3336 12.6483 11.3261 12.6645 11.2998Z" fill="#3E813E"/>
<path fill-rule="evenodd" clip-rule="evenodd" d="M10.9501 12.9102C10.9126 12.9181 10.8717 12.8997 10.8365 12.9259C10.8035 12.9331 10.7757 12.9158 10.7349 12.9053C10.7877 12.8821 10.8391 12.9218 10.8781 12.8828L10.9501 12.8971C10.9539 12.8993 10.9554 12.9034 10.9539 12.9064C10.9529 12.9089 10.9516 12.9102 10.9501 12.9102Z" fill="#3A433A"/>
<path fill-rule="evenodd" clip-rule="evenodd" d="M11.1166 13.096C11.1117 13.1144 11.1024 13.1264 11.0817 13.1253C11.0285 13.0803 10.967 13.1283 10.9085 13.1054C10.9209 13.0769 10.943 13.0754 10.97 13.0803C11.0169 13.1054 11.0682 13.0851 11.1166 13.096Z" fill="#667A66"/>
<path fill-rule="evenodd" clip-rule="evenodd" d="M10.617 12.1061C10.6118 12.1189 10.6084 12.1324 10.6035 12.1444L10.5799 12.1643C10.5615 12.1463 10.5349 12.1328 10.5469 12.0994C10.5409 12.0851 10.5383 12.0709 10.5477 12.0566C10.5803 12.0581 10.5882 12.096 10.617 12.1061Z" fill="#2A592A"/>
<path fill-rule="evenodd" clip-rule="evenodd" d="M10.9315 11.1809C10.9268 11.2184 10.9215 11.2567 10.9158 11.2957C10.885 11.2807 10.9075 11.2518 10.8978 11.2315C10.8891 11.205 10.8896 11.1764 10.8993 11.1502C10.9008 11.1374 10.9023 11.1258 10.9038 11.1074C10.9274 11.1314 10.9038 11.1652 10.9315 11.1809Z" fill="#CFD2CF"/>
<path fill-rule="evenodd" clip-rule="evenodd" d="M11.4494 13.3117C11.4764 13.2903 11.4869 13.3241 11.5057 13.3308C11.5143 13.3409 11.5447 13.3331 11.5334 13.3616L11.4974 13.3631C11.4607 13.3338 11.4367 13.3848 11.3999 13.3773C11.407 13.3466 11.4494 13.3432 11.4494 13.3117Z" fill="#365B36"/>
<path fill-rule="evenodd" clip-rule="evenodd" d="M10.9839 11.2122C10.9892 11.2359 10.973 11.2512 10.9625 11.2722C10.9382 11.2359 10.9648 11.1965 10.9389 11.1672C10.9352 11.1481 10.9322 11.129 10.9498 11.1147C10.955 11.1069 10.9614 11.1084 10.9663 11.1147C10.9794 11.1466 10.9524 11.1841 10.9839 11.2122Z" fill="#4F6D4F"/>
<path fill-rule="evenodd" clip-rule="evenodd" d="M10.9838 11.7124L11.0123 11.7109C10.9996 11.7376 11.0217 11.7709 10.9981 11.7957C10.9866 11.7964 10.9746 11.7967 10.9621 11.7964C10.9557 11.7927 10.9503 11.7874 10.9464 11.781C10.9426 11.7747 10.9403 11.7675 10.9399 11.7601C10.9437 11.7331 10.9621 11.7214 10.9838 11.7124Z" fill="#373837"/>
<path fill-rule="evenodd" clip-rule="evenodd" d="M12.5332 13.13C12.5418 13.0958 12.5846 13.0823 12.5823 13.043C12.6067 13.0538 12.6217 13.0812 12.6607 13.0797C12.63 13.1033 12.5853 13.0797 12.5831 13.127C12.5664 13.1274 12.5498 13.1284 12.5332 13.13Z" fill="#044004"/>
<path fill-rule="evenodd" clip-rule="evenodd" d="M10.7854 11.311C10.7633 11.3309 10.7633 11.3309 10.7487 11.2784C10.7487 11.2784 10.7449 11.2735 10.7434 11.2742L10.7314 11.2791C10.7089 11.2547 10.7325 11.2484 10.7487 11.2412C10.764 11.2337 10.7764 11.2412 10.7798 11.2551C10.7839 11.2735 10.7832 11.2926 10.7854 11.311Z" fill="#E8E8E8"/>
<path fill-rule="evenodd" clip-rule="evenodd" d="M10.5675 11.8814L10.5236 11.899C10.5022 11.8679 10.5315 11.8338 10.5112 11.8008C10.5469 11.8057 10.5405 11.8357 10.5562 11.8462C10.5622 11.8567 10.5821 11.8642 10.5675 11.8814Z" fill="#506650"/>
<path fill-rule="evenodd" clip-rule="evenodd" d="M10.8162 12.8249C10.8369 12.8357 10.8196 12.8477 10.8181 12.859C10.7773 12.8541 10.7383 12.8397 10.7041 12.817C10.745 12.8012 10.7791 12.8327 10.8162 12.8249Z" fill="#285528"/>
<path fill-rule="evenodd" clip-rule="evenodd" d="M11.0681 13.1289L11.1015 13.1447C11.0666 13.1724 11.0205 13.1488 10.9688 13.1867C11.0014 13.1327 11.0381 13.1375 11.0681 13.1289Z" fill="#415941"/>
<path fill-rule="evenodd" clip-rule="evenodd" d="M12.4802 13.1824C12.4375 13.1982 12.4007 13.2342 12.3501 13.2301C12.3889 13.1969 12.4355 13.1742 12.4855 13.1641C12.484 13.1703 12.4822 13.1764 12.4802 13.1824Z" fill="#013D01"/>
<path fill-rule="evenodd" clip-rule="evenodd" d="M12.8139 12.4199L12.8158 12.613C12.7977 12.55 12.7971 12.4833 12.8139 12.4199Z" fill="#0F6B0F"/>
<path fill-rule="evenodd" clip-rule="evenodd" d="M10.7849 12.7293L10.7526 12.7608C10.7222 12.7544 10.6907 12.7484 10.6675 12.7109C10.7057 12.7173 10.7365 12.7237 10.768 12.7293H10.7849Z" fill="#597259"/>
<path fill-rule="evenodd" clip-rule="evenodd" d="M11.128 11.0667L11.1243 11.0686C11.1025 11.0217 11.1415 10.9854 11.1426 10.9434C11.1528 10.9861 11.158 11.0289 11.128 11.0667Z" fill="#4C554C"/>
<path fill-rule="evenodd" clip-rule="evenodd" d="M10.6882 12.5593C10.682 12.5666 10.6751 12.5733 10.6676 12.5792C10.6329 12.5645 10.6025 12.5413 10.5791 12.5117C10.6282 12.5136 10.6582 12.5376 10.6882 12.5593Z" fill="#385C38"/>
<path fill-rule="evenodd" clip-rule="evenodd" d="M10.6842 12.4772C10.6715 12.4798 10.6565 12.4813 10.6497 12.4956L10.5567 12.4314C10.6104 12.4206 10.6325 12.4641 10.6681 12.4599L10.6842 12.4772Z" fill="#465846"/>
<path fill-rule="evenodd" clip-rule="evenodd" d="M10.9463 12.197C10.9508 12.1794 10.9463 12.158 10.9643 12.1445C10.9744 12.1794 10.9902 12.2113 10.9815 12.2473L10.9744 12.2458L10.9665 12.2465C10.9504 12.2507 10.9433 12.2465 10.9489 12.2289L10.9463 12.197Z" fill="#738273"/>
<path fill-rule="evenodd" clip-rule="evenodd" d="M11.3024 11.0106C11.2784 11.0147 11.254 11.0199 11.2342 10.9982C11.2312 10.9727 11.2525 10.9719 11.2675 10.9641C11.2788 10.9539 11.29 10.9554 11.3017 10.9641L11.3024 11.0106Z" fill="#4A674A"/>
<path fill-rule="evenodd" clip-rule="evenodd" d="M11.8006 11.0326C11.7951 11.0261 11.789 11.0195 11.7822 11.0128C11.8122 10.9966 11.8415 10.9884 11.8722 11.0169C11.8505 11.0375 11.825 11.0308 11.8006 11.0326Z" fill="#476B47"/>
<path fill-rule="evenodd" clip-rule="evenodd" d="M13.0317 11.5614C13.0309 11.545 13.0295 11.5286 13.0276 11.5123C13.0377 11.4804 13.0194 11.4426 13.046 11.4141C13.061 11.4534 13.0216 11.5056 13.0726 11.5374H13.0719L13.0317 11.5614Z" fill="#0C680C"/>
<path fill-rule="evenodd" clip-rule="evenodd" d="M10.6679 11.6116L10.6387 11.5974C10.6488 11.5783 10.6848 11.5925 10.687 11.5625C10.7092 11.5876 10.6987 11.618 10.7013 11.6465C10.6909 11.6342 10.6798 11.6225 10.6679 11.6116Z" fill="#566D56"/>
<path fill-rule="evenodd" clip-rule="evenodd" d="M10.5974 11.7462C10.5813 11.7612 10.5656 11.7541 10.5498 11.7462L10.5584 11.6836C10.5777 11.6999 10.5913 11.7218 10.5974 11.7462Z" fill="#181D18"/>
<path fill-rule="evenodd" clip-rule="evenodd" d="M10.5676 12.3281C10.5849 12.3454 10.6246 12.3525 10.6033 12.3923C10.5856 12.3739 10.5331 12.3746 10.5676 12.3281Z" fill="#4F684F"/>
<path fill-rule="evenodd" clip-rule="evenodd" d="M12.9956 12.2985C12.999 12.3236 13.0211 12.3435 13.0148 12.3701C12.9923 12.3453 12.9698 12.3212 12.9473 12.2977C12.9698 12.2943 12.9656 12.2767 12.9656 12.2617L12.9956 12.2985Z" fill="#4A6F4A"/>
<path fill-rule="evenodd" clip-rule="evenodd" d="M10.6014 12.2274L10.6006 12.2664C10.5706 12.2479 10.5464 12.2212 10.5309 12.1896C10.5684 12.1873 10.5762 12.2229 10.6014 12.2274Z" fill="#335833"/>
<path fill-rule="evenodd" clip-rule="evenodd" d="M11.0984 12.563C11.0827 12.5575 11.0668 12.5517 11.0508 12.5454C11.0515 12.5212 11.0527 12.4969 11.0542 12.4727C11.0682 12.5029 11.0829 12.533 11.0984 12.563Z" fill="#2E482E"/>
<path fill-rule="evenodd" clip-rule="evenodd" d="M10.6683 12.6167L10.6368 12.6452C10.6075 12.6445 10.5985 12.6223 10.5884 12.6002C10.6199 12.589 10.6405 12.6186 10.6683 12.6167Z" fill="#374837"/>
<path fill-rule="evenodd" clip-rule="evenodd" d="M11.3027 10.9665H11.2686C11.2585 10.9316 11.302 10.9316 11.3084 10.9023C11.3237 10.9286 11.3207 10.9481 11.3027 10.9665Z" fill="#5F725F"/>
<path fill-rule="evenodd" clip-rule="evenodd" d="M13.0467 11.3797C13.0182 11.3414 13.0347 11.2987 13.0332 11.2578C13.0531 11.2976 13.0474 11.3373 13.0467 11.3797Z" fill="#0C680C"/>
<path fill-rule="evenodd" clip-rule="evenodd" d="M10.5676 11.881C10.5634 11.8692 10.5596 11.8575 10.5564 11.8457H10.5736C10.5911 11.8645 10.5994 11.8865 10.5984 11.9117C10.5732 11.9151 10.5706 11.8993 10.5676 11.881Z" fill="#E2E4E2"/>
<path fill-rule="evenodd" clip-rule="evenodd" d="M10.5491 12.0574L10.5483 12.1001C10.5198 12.1001 10.5007 12.081 10.5071 12.0574C10.5116 12.0356 10.5345 12.0409 10.5491 12.0574Z" fill="#9BA49B"/>
<path fill-rule="evenodd" clip-rule="evenodd" d="M11.6665 10.9875C11.6395 10.9875 11.6444 10.962 11.6343 10.9477L11.7007 10.9395L11.6665 10.9875Z" fill="#517051"/>
<path fill-rule="evenodd" clip-rule="evenodd" d="M10.7316 11.4635C10.7273 11.4462 10.7237 11.4287 10.7207 11.411L10.738 11.3945C10.743 11.3963 10.7478 11.3968 10.7526 11.396C10.7526 11.4193 10.7556 11.4437 10.7507 11.4658C10.7443 11.4935 10.7372 11.474 10.7316 11.4635Z" fill="#A1A6A1"/>
<path fill-rule="evenodd" clip-rule="evenodd" d="M10.6014 12.2773L10.6539 12.325L10.6464 12.337L10.583 12.3077L10.6014 12.2773Z" fill="#CBCFCB"/>
<path fill-rule="evenodd" clip-rule="evenodd" d="M11.2688 13.2617L11.2695 13.2816C11.2525 13.2906 11.2336 13.3011 11.2129 13.3131C11.2185 13.2737 11.2478 13.273 11.2688 13.2617Z" fill="#395339"/>
<path fill-rule="evenodd" clip-rule="evenodd" d="M11.202 11.0681C11.1913 11.0622 11.181 11.0558 11.1709 11.049C11.1765 11.0291 11.181 11.0096 11.1881 10.9863C11.2144 11.007 11.196 11.0313 11.2013 11.052C11.2013 11.0565 11.2013 11.0632 11.202 11.0681Z" fill="#526B52"/>
<path fill-rule="evenodd" clip-rule="evenodd" d="M12.8662 12.3441L12.8369 12.3449C12.8508 12.3318 12.8448 12.3048 12.8669 12.2969C12.8654 12.3205 12.8905 12.3269 12.8999 12.3434C12.8887 12.3528 12.8778 12.3542 12.8662 12.3441Z" fill="#0F6B0F"/>
<path fill-rule="evenodd" clip-rule="evenodd" d="M11.3662 11.3142C11.3741 11.3019 11.3771 11.2786 11.4 11.2992C11.4041 11.3244 11.385 11.3326 11.3662 11.3401C11.3597 11.3326 11.3597 11.324 11.3662 11.3142Z" fill="#607260"/>
<path fill-rule="evenodd" clip-rule="evenodd" d="M11.3664 11.3147V11.3405C11.3596 11.3432 11.3532 11.3439 11.3472 11.3465L11.3011 11.3173L11.3487 11.3105L11.3664 11.3147Z" fill="#919C91"/>
<path fill-rule="evenodd" clip-rule="evenodd" d="M10.9014 11.1484C10.9014 11.1754 10.9009 11.2026 10.8999 11.2298L10.8838 11.2283C10.8905 11.2024 10.8714 11.1698 10.9014 11.1484Z" fill="#1C3A1C"/>
<path fill-rule="evenodd" clip-rule="evenodd" d="M10.6272 11.4316L10.6449 11.5141C10.6137 11.495 10.6175 11.4748 10.6272 11.4316Z" fill="#282D28"/>
<path fill-rule="evenodd" clip-rule="evenodd" d="M12.6689 13.1609C12.6528 13.165 12.6363 13.1657 12.6295 13.183C12.6142 13.1751 12.6025 13.1639 12.5984 13.1474L12.5977 13.1489C12.6235 13.1376 12.646 13.1507 12.6689 13.1609Z" fill="#3A723A"/>
<path fill-rule="evenodd" clip-rule="evenodd" d="M10.9652 11.1128H10.9487C10.951 11.0877 10.9525 11.0615 10.9559 11.0273C10.975 11.0603 10.9679 11.0866 10.9652 11.1128Z" fill="#283328"/>
<path fill-rule="evenodd" clip-rule="evenodd" d="M11.4797 10.9652C11.462 10.9574 11.4695 10.9416 11.4673 10.9296C11.4729 10.9169 11.4857 10.8977 11.4913 10.9034C11.513 10.9259 11.4744 10.9424 11.4797 10.9652Z" fill="#527452"/>
<path fill-rule="evenodd" clip-rule="evenodd" d="M10.3281 11.1484C10.3634 11.1586 10.3941 11.1766 10.3866 11.2156C10.3788 11.2561 10.3626 11.3044 10.3203 11.3082C10.2895 11.3116 10.2355 11.2853 10.24 11.2448C10.2434 11.2218 10.2535 11.2003 10.2693 11.1831C10.285 11.1659 10.3055 11.1538 10.3281 11.1484Z" fill="#CE1625"/>
<path fill-rule="evenodd" clip-rule="evenodd" d="M10.2492 11.1314C10.2338 11.1648 10.2245 11.2147 10.181 11.2207C10.1581 11.2241 10.106 11.1971 10.1112 11.1656C10.118 11.1281 10.1412 11.0853 10.1903 11.0786C10.2226 11.0748 10.2417 11.0958 10.2492 11.1314Z" fill="#CF1B24"/>
<path fill-rule="evenodd" clip-rule="evenodd" d="M13.4861 10.8866C13.482 10.9308 13.4625 10.9578 13.4291 10.9526C13.3751 10.9439 13.3425 10.8978 13.3309 10.8524C13.323 10.8176 13.3759 10.7827 13.4014 10.7876C13.4512 10.7966 13.4689 10.8506 13.4861 10.8866Z" fill="#CE1525"/>
<path fill-rule="evenodd" clip-rule="evenodd" d="M9.88797 12.4964C9.88497 12.4458 9.90635 12.4165 9.94272 12.418C10.0136 12.4229 10.011 12.4885 10.0177 12.5358C10.0271 12.5991 9.96372 12.5883 9.93672 12.5883C9.87072 12.586 9.92322 12.5121 9.88797 12.4964Z" fill="#CF1924"/>
<path fill-rule="evenodd" clip-rule="evenodd" d="M11.7036 10.2898C11.7122 10.358 11.6646 10.3843 11.6024 10.3974C11.5705 10.4042 11.5506 10.3985 11.5461 10.3603C11.539 10.3112 11.521 10.2635 11.5184 10.2152C11.5169 10.1893 11.4745 10.151 11.5277 10.1327C11.5787 10.1147 11.6309 10.1019 11.6691 10.1563C11.6965 10.1942 11.7029 10.2377 11.7036 10.2898Z" fill="#CE1326"/>
<path fill-rule="evenodd" clip-rule="evenodd" d="M12.9923 10.4347C12.9822 10.4695 12.9698 10.5044 12.9278 10.498C12.887 10.4917 12.8315 10.483 12.8273 10.4362C12.8251 10.4095 12.8416 10.3447 12.8941 10.3522C12.935 10.3589 12.9833 10.381 12.9923 10.4347Z" fill="#CE1525"/>
<path fill-rule="evenodd" clip-rule="evenodd" d="M10.012 11.7828C9.99699 11.8098 10.0262 11.8713 9.95499 11.854C9.92012 11.8461 9.86724 11.8611 9.88262 11.7899C9.89199 11.7471 9.88562 11.6973 9.94899 11.6973C10.0034 11.6973 10.0142 11.7363 10.012 11.7828Z" fill="#CF1825"/>
<path fill-rule="evenodd" clip-rule="evenodd" d="M10.9389 10.5084C10.9134 10.4672 10.9119 10.4214 10.8942 10.3633C10.946 10.3948 10.9936 10.4165 11.0079 10.4589C11.015 10.4792 10.9681 10.4972 10.9389 10.5084Z" fill="#CF1B24"/>
<path fill-rule="evenodd" clip-rule="evenodd" d="M13.9239 12.2871C13.8901 12.3122 13.8549 12.3107 13.8234 12.3182C13.8057 12.3219 13.784 12.3381 13.7709 12.3163C13.7589 12.2942 13.7682 12.2664 13.7795 12.2454C13.7967 12.2128 13.8174 12.2428 13.8346 12.2484C13.8639 12.2571 13.8901 12.2721 13.9239 12.2871Z" fill="#D32C21"/>
<path fill-rule="evenodd" clip-rule="evenodd" d="M13.1851 10.5605C13.166 10.607 13.1566 10.6382 13.1412 10.6663C13.1341 10.6805 13.136 10.7139 13.109 10.703C13.0857 10.6938 13.0662 10.677 13.0535 10.6554C13.0419 10.631 13.0737 10.6269 13.088 10.6172C13.112 10.6003 13.1397 10.5875 13.1851 10.5605ZM13.5526 11.2768C13.529 11.2502 13.4934 11.207 13.511 11.1943C13.5444 11.1707 13.595 11.1707 13.6535 11.156C13.6212 11.2127 13.5882 11.2434 13.5526 11.2768Z" fill="#D22522"/>
<path fill-rule="evenodd" clip-rule="evenodd" d="M11.25 11.8109C11.409 11.8109 11.5436 11.8086 11.6786 11.8124C11.7307 11.8135 11.7551 11.8 11.7716 11.7468C11.8118 11.6121 11.8609 11.4798 11.916 11.3223C11.9651 11.4689 12.0128 11.59 12.0465 11.7149C12.069 11.7925 12.1061 11.8176 12.186 11.8124C12.3086 11.8053 12.4324 11.8109 12.5812 11.8109C12.4575 11.9091 12.3544 11.9946 12.2464 12.0738C12.2018 12.106 12.1961 12.1353 12.2137 12.1848C12.2629 12.316 12.3056 12.4499 12.3585 12.6066C12.2179 12.5099 12.0941 12.4293 11.976 12.3423C11.9291 12.3081 11.8991 12.3096 11.8534 12.343C11.7356 12.43 11.6126 12.5106 11.4724 12.6074C11.5234 12.4578 11.5635 12.328 11.6126 12.2005C11.6355 12.1401 11.6284 12.103 11.5725 12.0636C11.4683 11.9901 11.3707 11.9076 11.25 11.8109Z" fill="#FECD00"/>
<path fill-rule="evenodd" clip-rule="evenodd" d="M12.4989 13.0434C12.4769 13.0464 12.455 13.0486 12.4332 13.0498L12.4314 13.0434C12.4362 13.0119 12.4572 12.9883 12.4704 12.9609H12.5154C12.5174 12.9724 12.5185 12.9841 12.5187 12.9958C12.5315 13.0198 12.5169 13.0326 12.4989 13.0434Z" fill="#1B571B"/>
<path fill-rule="evenodd" clip-rule="evenodd" d="M12.4989 13.0437L12.5187 12.9961L12.5821 13.0437H12.4989Z" fill="#016501"/>
<path fill-rule="evenodd" clip-rule="evenodd" d="M12.6641 11.3636C12.6761 11.3427 12.6938 11.3257 12.7151 11.3145C12.7672 11.4007 12.6854 11.3516 12.6641 11.3636Z" fill="#E6EAE6"/>
<path fill-rule="evenodd" clip-rule="evenodd" d="M11.5341 13.361L11.5063 13.3302L11.6503 13.2612C11.659 13.2515 11.6721 13.2526 11.6837 13.2533C11.7677 13.235 11.8206 13.2968 11.8847 13.3302C11.8082 13.4161 11.7231 13.4393 11.6252 13.4L11.5341 13.361Z" fill="#FBFCFB"/>
<path fill-rule="evenodd" clip-rule="evenodd" d="M11.685 13.2529C11.674 13.2561 11.6629 13.2587 11.6516 13.2607C11.5852 13.2521 11.5166 13.2866 11.4536 13.2439C11.5305 13.2487 11.6089 13.2322 11.685 13.2529Z" fill="#073B07"/>
<path fill-rule="evenodd" clip-rule="evenodd" d="M12.8662 12.3445L12.9 12.3438C12.9198 12.3558 12.9198 12.3745 12.9168 12.3944C12.9052 12.4049 12.894 12.4049 12.8846 12.3906L12.8662 12.3445Z" fill="#F0F1F0"/>
<path fill-rule="evenodd" clip-rule="evenodd" d="M12.8814 12.3906L12.9136 12.3944C12.9129 12.4112 12.9121 12.4334 12.8922 12.4311C12.8712 12.4285 12.8821 12.4049 12.8814 12.3906Z" fill="#1E5C1E"/>
<path fill-rule="evenodd" clip-rule="evenodd" d="M11.1676 11.2957C11.1954 11.3291 11.2366 11.3006 11.2737 11.3209C11.2002 11.343 11.1192 11.3287 11.0615 11.3906C11.0682 11.334 11.1117 11.3164 11.1504 11.295L11.1676 11.2957ZM11.1511 11.2807C11.1177 11.2406 11.117 11.2372 11.1695 11.2207C11.1909 11.2129 11.1939 11.1495 11.2344 11.1975L11.1511 11.2807Z" fill="#006100"/>
<path fill-rule="evenodd" clip-rule="evenodd" d="M11.4365 11.0884C11.4823 11.0565 11.525 11.055 11.5678 11.0527C11.5329 11.0839 11.4965 11.1082 11.4365 11.0884Z" fill="#006400"/>
<path fill-rule="evenodd" clip-rule="evenodd" d="M11.6365 11.0958C11.635 11.1015 11.635 11.1067 11.635 11.1067C11.6166 11.1146 11.5975 11.1202 11.5844 11.1026C11.5806 11.0985 11.5833 11.085 11.5859 11.0835C11.605 11.0775 11.6234 11.0782 11.6365 11.0958Z" fill="#678667"/>
<path fill-rule="evenodd" clip-rule="evenodd" d="M12.9326 11.6152C12.9491 11.6133 12.9709 11.6032 12.9802 11.626C12.9847 11.6395 12.9881 11.6568 12.9649 11.6624L12.9326 11.6152Z" fill="#D4DAD4"/>
<path fill-rule="evenodd" clip-rule="evenodd" d="M10.9501 11.7625C10.9548 11.7739 10.9589 11.7855 10.9625 11.7973L10.9216 11.8142C10.9707 11.8791 10.8965 11.9125 10.8834 11.9623C10.8511 11.983 10.8117 12.0441 10.8012 11.9466L10.7986 11.938C10.8042 11.8911 10.7727 11.839 10.8335 11.8135C10.8444 11.797 10.8567 11.7805 10.8676 11.7636C10.8957 11.7557 10.9231 11.7516 10.9501 11.7625Z" fill="#074F07"/>
<path fill-rule="evenodd" clip-rule="evenodd" d="M10.8517 12.5308C10.8242 12.5391 10.7948 12.5386 10.7676 12.5293C10.7404 12.52 10.7168 12.5024 10.7002 12.479C10.7504 12.4546 10.7456 12.4198 10.7186 12.38L10.7193 12.3294C10.7306 12.3245 10.7441 12.3245 10.7519 12.3125H10.7684C10.7921 12.3459 10.7778 12.4029 10.8352 12.4126C10.8427 12.4516 10.8798 12.4846 10.8536 12.5285L10.8517 12.5308Z" fill="#003C00"/>
<path fill-rule="evenodd" clip-rule="evenodd" d="M10.9688 12.4473C11.0236 12.4773 11.0104 12.5328 11.0194 12.5796C11.0051 12.6613 11.0224 12.7454 11.0678 12.8148C11.0243 12.799 10.9958 12.7656 10.9688 12.7308C10.9894 12.6355 10.9673 12.5414 10.9688 12.4473Z" fill="#025D02"/>
<path fill-rule="evenodd" clip-rule="evenodd" d="M10.7349 11.9965C10.7806 11.9223 10.7465 11.8413 10.7514 11.7637C10.7649 11.7712 10.7679 11.7835 10.769 11.7978C10.7746 11.8192 10.8155 11.7993 10.8099 11.8334C10.805 11.8717 10.8177 11.9103 10.802 11.947C10.7656 11.9452 10.7641 11.9894 10.7349 11.9965Z" fill="#074F07"/>
<path fill-rule="evenodd" clip-rule="evenodd" d="M10.8181 12.6631C10.8109 12.6238 10.7663 12.6125 10.7524 12.5784C10.7584 12.5649 10.7753 12.5491 10.7806 12.5566C10.8049 12.5994 10.8676 12.596 10.8841 12.6451V12.6628C10.8676 12.677 10.8518 12.647 10.8342 12.6628C10.8289 12.6718 10.8241 12.6733 10.8181 12.6631Z" fill="#033803"/>
<path fill-rule="evenodd" clip-rule="evenodd" d="M10.8345 12.3792C10.8289 12.3125 10.7798 12.2525 10.8101 12.1719C10.8285 12.2409 10.8443 12.3024 10.8611 12.3627C10.8683 12.3969 10.8488 12.3826 10.8345 12.3792Z" fill="#006500"/>
<path fill-rule="evenodd" clip-rule="evenodd" d="M10.769 12.2787C10.7514 12.2176 10.7195 12.1606 10.7188 12.0957L10.7514 12.1126C10.7405 12.1692 10.8204 12.2176 10.769 12.2787Z" fill="#006000"/>
<path fill-rule="evenodd" clip-rule="evenodd" d="M10.8345 12.6613C10.8521 12.6347 10.8686 12.6568 10.8843 12.6613C10.9035 12.6955 10.9398 12.7056 10.9687 12.7281C10.9608 12.739 10.9833 12.7896 10.9387 12.7547C10.9008 12.7262 10.8682 12.6932 10.8345 12.6613Z" fill="#076007"/>
<path fill-rule="evenodd" clip-rule="evenodd" d="M10.8311 12.1394C10.8551 12.1075 10.7842 12.0704 10.8356 12.0441C10.8449 12.0393 10.8746 12.0509 10.8757 12.0584C10.8817 12.0933 10.8584 12.1173 10.8311 12.1394Z" fill="#025E02"/>
<path fill-rule="evenodd" clip-rule="evenodd" d="M10.8528 12.528C10.8461 12.4897 10.8412 12.4511 10.8345 12.4121C10.8521 12.4354 10.8686 12.4564 10.8843 12.4796V12.4785C10.8843 12.5025 10.887 12.528 10.8528 12.528Z" fill="#006200"/>
<path fill-rule="evenodd" clip-rule="evenodd" d="M10.8348 12.4126C10.7501 12.422 10.7872 12.3485 10.7681 12.3125C10.8056 12.3192 10.7756 12.395 10.8348 12.3793V12.4126Z" fill="#006000"/>
<path fill-rule="evenodd" clip-rule="evenodd" d="M10.8827 12.481C10.8797 12.439 10.8954 12.4015 10.9089 12.3535C10.9213 12.4075 10.9198 12.4476 10.8827 12.4799V12.481Z" fill="#006500"/>
<path fill-rule="evenodd" clip-rule="evenodd" d="M10.9464 12.5952C10.919 12.5446 10.9407 12.5127 10.9422 12.4805C10.9557 12.5127 10.9531 12.5461 10.9464 12.5952Z" fill="#005D00"/>
<path fill-rule="evenodd" clip-rule="evenodd" d="M10.9013 12.1973L10.9021 12.2636C10.8807 12.273 10.8919 12.2989 10.8736 12.3191C10.8689 12.298 10.869 12.2762 10.8738 12.2551C10.8786 12.234 10.888 12.2143 10.9013 12.1973Z" fill="#006300"/>
<path fill-rule="evenodd" clip-rule="evenodd" d="M10.9501 12.2285L10.9677 12.2461C10.9599 12.2739 10.9509 12.302 10.9392 12.3388C10.9344 12.2945 10.9224 12.2604 10.9501 12.2285Z" fill="#2E482E"/>
<path fill-rule="evenodd" clip-rule="evenodd" d="M10.7514 12.1131V12.0332C10.769 12.0606 10.7772 12.0872 10.7514 12.1131Z" fill="#006400"/>
<path fill-rule="evenodd" clip-rule="evenodd" d="M11.0691 11.4799C11.0462 11.4832 11.0192 11.4727 11.0009 11.4982C10.9517 11.4592 10.9817 11.4199 11.0009 11.3809C11.0384 11.418 11.0927 11.418 11.1347 11.4442C11.1186 11.4682 11.0901 11.4664 11.0691 11.4799Z" fill="#005900"/>
<path fill-rule="evenodd" clip-rule="evenodd" d="M11.0184 11.2806C11.0286 11.2628 11.0394 11.2448 11.0506 11.2266C11.0889 11.2956 11.0349 11.3353 11.0015 11.3803C10.9576 11.3559 10.9741 11.4167 10.9437 11.4174C10.9407 11.3717 10.9685 11.3361 10.9842 11.2974C10.9951 11.2899 11.0094 11.2926 11.0184 11.2806Z" fill="#005900"/>
<path fill-rule="evenodd" clip-rule="evenodd" d="M10.9165 11.5636C10.9086 11.5894 10.8542 11.6194 10.9225 11.6408L10.8996 11.6626C10.8351 11.6041 10.888 11.5396 10.8733 11.4781L10.894 11.4766C10.902 11.5048 10.9095 11.5338 10.9165 11.5636Z" fill="#005A00"/>
<path fill-rule="evenodd" clip-rule="evenodd" d="M10.8023 11.9473V11.8142C10.7896 11.7977 10.7915 11.7812 10.8023 11.7643C10.8215 11.7542 10.8132 11.7302 10.8346 11.7051V11.8142C10.7948 11.8517 10.8417 11.9095 10.8023 11.9473Z" fill="#006600"/>
<path fill-rule="evenodd" clip-rule="evenodd" d="M10.8112 11.5879C10.8311 11.6441 10.7921 11.6839 10.7958 11.7289C10.7733 11.6813 10.7973 11.6396 10.8112 11.5879Z" fill="#006000"/>
<path fill-rule="evenodd" clip-rule="evenodd" d="M11.0185 11.5301C10.993 11.5481 10.9716 11.5751 10.9341 11.5624C10.9517 11.5241 10.9851 11.529 11.0185 11.5301Z" fill="#005A00"/>
<path fill-rule="evenodd" clip-rule="evenodd" d="M10.7349 11.6634C10.718 11.6713 10.7007 11.6784 10.7034 11.6473L10.7349 11.6016V11.6634Z" fill="#005400"/>
<path fill-rule="evenodd" clip-rule="evenodd" d="M10.8673 11.3379C10.8917 11.3664 10.8846 11.3964 10.8722 11.4283C10.8705 11.3985 10.8685 11.3689 10.8662 11.3394L10.8673 11.3379Z" fill="#006100"/>
<path fill-rule="evenodd" clip-rule="evenodd" d="M10.8025 11.7637V11.8135C10.7939 11.8203 10.7826 11.8334 10.7777 11.8319C10.7631 11.8255 10.7706 11.8087 10.7695 11.7978C10.7795 11.7858 10.7905 11.7744 10.8025 11.7637Z" fill="#001B00"/>
<path fill-rule="evenodd" clip-rule="evenodd" d="M10.7349 11.7462V11.6641C10.7581 11.6926 10.7592 11.7196 10.7349 11.7462Z" fill="#005400"/>
<path fill-rule="evenodd" clip-rule="evenodd" d="M10.7515 12.3118C10.7526 12.3421 10.7365 12.3372 10.7188 12.3286C10.7158 12.3159 10.6975 12.3024 10.711 12.2938C10.7173 12.2893 10.738 12.3054 10.7515 12.3118Z" fill="#005A00"/>
<path fill-rule="evenodd" clip-rule="evenodd" d="M11.0183 11.2809C11.0206 11.2929 11.0348 11.3064 11.0198 11.3169C10.9992 11.3319 10.9992 11.2989 10.9842 11.2978C10.9876 11.2772 10.9913 11.2558 11.0183 11.2809Z" fill="#013701"/>
<path fill-rule="evenodd" clip-rule="evenodd" d="M11.069 11.479C11.0858 11.4584 11.1098 11.4505 11.135 11.4434C11.1403 11.4451 11.1459 11.4456 11.1515 11.4449L11.165 11.4599L11.069 11.479Z" fill="#3B5A3B"/>
<path fill-rule="evenodd" clip-rule="evenodd" d="M12.4689 12.9624C12.4981 13.0101 12.4775 13.0337 12.4299 13.0449C12.419 13.0371 12.3695 13.0667 12.3988 13.0228C12.4141 13.0003 12.4014 12.9276 12.4689 12.9624Z" fill="#F1F2F1"/>
<path fill-rule="evenodd" clip-rule="evenodd" d="M12.3493 13.2266C12.3234 13.2599 12.287 13.2614 12.2495 13.2599C12.2781 13.238 12.3132 13.2262 12.3493 13.2266Z" fill="#003C00"/>
<path fill-rule="evenodd" clip-rule="evenodd" d="M11.6324 13.1459C11.6324 13.1522 11.6324 13.1568 11.6316 13.1631C11.5143 13.1931 11.3973 13.1305 11.2795 13.1624C11.2578 13.168 11.2349 13.1616 11.2334 13.1305C11.2911 13.1061 11.3526 13.1148 11.4149 13.1061C11.3639 13.072 11.2896 13.1095 11.2428 13.0502C11.2855 13.0461 11.3271 13.0679 11.3658 13.0469C11.455 13.057 11.5413 13.0746 11.6155 13.1301L11.6324 13.1459Z" fill="#006200"/>
<path fill-rule="evenodd" clip-rule="evenodd" d="M10.9499 12.91C10.9514 12.9059 10.9514 12.9014 10.9499 12.8973L10.9522 12.8796C10.9479 12.8764 10.9458 12.8728 10.9458 12.8688C10.9458 12.8638 10.9466 12.8614 10.9481 12.8616C10.9623 12.856 10.9773 12.8496 10.9698 12.829V12.8283C10.9844 12.814 11.0028 12.8208 11.0122 12.8339C11.0591 12.8916 11.1367 12.8845 11.1929 12.9224C11.2184 12.9408 11.2451 12.9303 11.2687 12.9123L11.2844 12.8958C11.3043 12.9156 11.2886 12.9629 11.3351 12.9621C11.3576 12.9716 11.3688 12.9884 11.3688 13.0124L11.3594 13.0195C11.3092 13.0296 11.2698 12.9768 11.2181 12.9959H11.2188C11.1907 13.0165 11.1749 12.9843 11.1517 12.9801C11.1239 12.9753 11.1014 12.9408 11.0677 12.9625L11.0516 12.9633C11.0043 12.9711 10.9777 12.94 10.9499 12.91Z" fill="#013901"/>
<path fill-rule="evenodd" clip-rule="evenodd" d="M11.6173 13.1291C11.5397 13.0818 11.4448 13.0897 11.3676 13.0458V13.035C11.3616 13.0267 11.3596 13.0212 11.3616 13.0185C11.3633 13.0145 11.3653 13.0126 11.3676 13.0128C11.422 13.005 11.464 13.041 11.5075 13.062C11.5163 13.0676 11.5265 13.0706 11.537 13.0708C11.5475 13.0709 11.5577 13.0681 11.5667 13.0627C11.5933 13.077 11.6155 13.0961 11.6173 13.1291Z" fill="#013901"/>
<path fill-rule="evenodd" clip-rule="evenodd" d="M11.0669 12.9611C11.1291 12.9217 11.1659 12.9929 11.2176 12.9944C11.1903 13.0301 11.1629 12.9903 11.134 12.9944H11.1348C11.1266 12.9843 11.1162 12.976 11.1045 12.9703C11.0928 12.9645 11.08 12.9614 11.0669 12.9611Z" fill="#006100"/>
<path fill-rule="evenodd" clip-rule="evenodd" d="M11.3664 13.0115V13.028C11.312 13.0351 11.267 13.0021 11.2156 12.9946C11.2715 12.956 11.3139 13.0227 11.3664 13.0115ZM11.1339 12.9946C11.0979 13.0246 11.0585 13.0055 11.0187 12.9946H11.1346H11.1339Z" fill="#006200"/>
<path fill-rule="evenodd" clip-rule="evenodd" d="M13.0647 12.0605C13.0587 12.0939 13.0794 12.131 13.0475 12.1607C13.0539 12.1273 13.034 12.0898 13.0647 12.0605Z" fill="#045204"/>
<path fill-rule="evenodd" clip-rule="evenodd" d="M11.2689 12.9115C11.2396 13.0169 11.1871 12.925 11.1477 12.9243C11.1234 12.9224 11.1016 12.8601 11.0709 12.9216C11.0671 12.931 11.0607 12.9186 11.051 12.892C11.0445 12.8749 11.0335 12.8599 11.0192 12.8485C11.0049 12.8372 10.9877 12.8299 10.9696 12.8275C10.9681 12.8155 10.949 12.7949 10.9835 12.8024C11.012 12.808 11.0304 12.8515 11.0694 12.8275C11.0773 12.8376 11.0873 12.8458 11.0987 12.8517C11.1101 12.8576 11.1226 12.861 11.1354 12.8616C11.1526 12.8508 11.1691 12.895 11.186 12.8616L11.2029 12.8275C11.2241 12.8553 11.2461 12.8833 11.2689 12.9115ZM11.3326 12.9614C11.2662 12.9775 11.2936 12.9213 11.282 12.895L11.3326 12.9614Z" fill="#025D02"/>
<path fill-rule="evenodd" clip-rule="evenodd" d="M11.0681 12.6113C11.0902 12.635 11.0932 12.6653 11.1015 12.6946V12.7418C11.0842 12.6991 11.0632 12.6575 11.0681 12.6113Z" fill="#184318"/>
<path fill-rule="evenodd" clip-rule="evenodd" d="M11.1843 12.863C11.1881 12.878 11.2173 12.8821 11.2087 12.8993C11.1967 12.9203 11.1828 12.8993 11.1704 12.8915C11.1577 12.8836 11.1461 12.8723 11.1333 12.863C11.1451 12.853 11.1561 12.853 11.1663 12.863H11.1843Z" fill="#023602"/>
<path fill-rule="evenodd" clip-rule="evenodd" d="M11.1668 12.8637H11.1338C11.1353 12.8453 11.136 12.8288 11.1368 12.8086C11.1615 12.8225 11.1653 12.8423 11.1668 12.8637Z" fill="#025D02"/>
<path fill-rule="evenodd" clip-rule="evenodd" d="M10.9502 11.7621C10.9374 11.7685 10.9233 11.7719 10.909 11.772C10.8947 11.7721 10.8806 11.769 10.8677 11.7628C10.8952 11.7403 10.9232 11.7178 10.9517 11.6953C10.9622 11.7018 10.9731 11.7077 10.9843 11.7129L10.9502 11.7621Z" fill="#043D04"/>
<path fill-rule="evenodd" clip-rule="evenodd" d="M10.9688 12.8283C10.9767 12.8459 10.9812 12.8631 10.952 12.8616C10.9336 12.8601 10.9156 12.8583 10.9028 12.8433C10.9205 12.8196 10.946 12.8316 10.9688 12.8283Z" fill="#005D00"/>
<path fill-rule="evenodd" clip-rule="evenodd" d="M10.9012 12.8438C10.9196 12.8456 10.9387 12.843 10.9503 12.8621C10.9496 12.8677 10.9496 12.8738 10.9496 12.8738C10.937 12.8751 10.9242 12.8732 10.9126 12.8683C10.9009 12.8634 10.8907 12.8556 10.8828 12.8456C10.8898 12.8454 10.8959 12.8447 10.9012 12.8438Z" fill="#012D01"/>
<path fill-rule="evenodd" clip-rule="evenodd" d="M10.6741 12.4059C10.6542 12.4093 10.6344 12.3995 10.6404 12.3838C10.6482 12.3628 10.6595 12.3853 10.6681 12.392C10.6722 12.395 10.6722 12.4014 10.6741 12.4059Z" fill="#526752"/>
</svg>
