<svg width="45" height="40" viewBox="0 0 45 40" fill="none" xmlns="http://www.w3.org/2000/svg">
<path d="M18.9226 3.88543L7.73104 10.4354C4.14304 12.5354 4.14304 17.2354 7.73104 19.3354L18.9226 25.8854C20.9304 27.0688 24.2395 27.0688 26.2473 25.8854L37.3831 19.3354C40.9525 17.2354 40.9525 12.5521 37.3831 10.4521L26.2473 3.90209C24.2395 2.70209 20.9304 2.70209 18.9226 3.88543Z" stroke="white" stroke-width="3" stroke-linecap="round" stroke-linejoin="round"/>
<path d="M10.5489 21.8L10.5303 29.6167C10.5303 31.7333 12.3522 34 14.583 34.6667L20.5135 36.4333C21.5359 36.7333 23.2277 36.7333 24.2688 36.4333L30.1992 34.6667C32.4301 34 34.2519 31.7333 34.2519 29.6167V21.8833M39.8663 25V15" stroke="white" stroke-width="3" stroke-linecap="round" stroke-linejoin="round"/>
</svg>
