<svg width="45" height="40" viewBox="0 0 45 40" fill="none" xmlns="http://www.w3.org/2000/svg">
<path d="M19.0016 3.88543L7.71406 10.4354C4.09531 12.5354 4.09531 17.2354 7.71406 19.3354L19.0016 25.8854C21.0266 27.0688 24.3641 27.0688 26.3891 25.8854L37.6203 19.3354C41.2203 17.2354 41.2203 12.5521 37.6203 10.4521L26.3891 3.90209C24.3641 2.70209 21.0266 2.70209 19.0016 3.88543Z" stroke="#262826" stroke-width="3" stroke-linecap="round" stroke-linejoin="round"/>
<path d="M10.5559 21.8L10.5371 29.6167C10.5371 31.7333 12.3746 34 14.6246 34.6667L20.6059 36.4333C21.6371 36.7333 23.3434 36.7333 24.3934 36.4333L30.3746 34.6667C32.6246 34 34.4621 31.7333 34.4621 29.6167V21.8833M40.1246 25V15" stroke="#262826" stroke-width="3" stroke-linecap="round" stroke-linejoin="round"/>
</svg>
