<svg width="28" height="30" viewBox="0 0 28 30" fill="none" xmlns="http://www.w3.org/2000/svg">
<path d="M27.9999 12.2994C25.2484 12.3056 22.5643 11.5011 20.3268 9.99961V20.4715C20.3261 22.411 19.6937 24.3041 18.5144 25.8976C17.335 27.491 15.6648 28.709 13.7272 29.3886C11.7895 30.0682 9.67675 30.177 7.67136 29.7005C5.66597 29.2239 3.86354 28.1848 2.50511 26.722C1.14667 25.2592 0.296959 23.4425 0.0696018 21.5147C-0.157755 19.5869 0.248075 17.6401 1.23283 15.9344C2.21758 14.2287 3.73431 12.8455 5.58022 11.9698C7.42613 11.094 9.51323 10.7675 11.5624 11.0338V16.3008C10.6247 16.0243 9.61777 16.0326 8.6854 16.3246C7.75303 16.6166 6.94291 17.1773 6.37074 17.9267C5.79857 18.6761 5.49361 19.5758 5.4994 20.4973C5.50519 21.4189 5.82144 22.3152 6.40298 23.0582C6.98453 23.8012 7.80164 24.3529 8.73761 24.6346C9.67359 24.9163 10.6806 24.9135 11.6147 24.6266C12.5489 24.3398 13.3625 23.7835 13.9394 23.0373C14.5162 22.2911 14.8268 21.3931 14.8268 20.4715V0H20.3268C20.3229 0.435436 20.3618 0.870281 20.4431 1.29902C20.6342 2.25614 21.0316 3.16665 21.6109 3.97484C22.1902 4.78304 22.9394 5.47195 23.8124 5.99941C25.0546 6.76939 26.5108 7.17979 27.9999 7.17949V12.2994Z" fill="#002140"/>
</svg>
