<svg width="42" height="36" viewBox="0 0 42 36" fill="none" xmlns="http://www.w3.org/2000/svg">
<path d="M27.9819 14.1412L27.7138 13.875C26.459 12.6651 24.9168 11.7946 23.2325 11.3456C17.7819 9.88497 12.5469 12.975 11.06 18.5268C10.9794 18.8268 10.9362 19.1644 10.865 20.01C10.5763 23.5162 9.75125 26.1319 7.49 28.785C11.7275 30.45 16.7487 31.6237 20.5662 31.6237C22.8358 31.6208 25.0411 30.87 26.8409 29.4874C28.6406 28.1049 29.9346 26.1677 30.5225 23.9756C30.984 22.2564 30.9924 20.4469 30.5469 18.7235C30.1013 17 29.2188 15.4213 27.9819 14.1412ZM23.915 7.64997L33.1756 0.446224C33.5364 0.166378 33.9869 0.02778 34.4425 0.0564323C34.8982 0.0850845 35.3278 0.279018 35.6506 0.601849L41.2663 6.2156C41.5888 6.5387 41.7824 6.96838 41.8107 7.42405C41.839 7.87972 41.7001 8.33006 41.42 8.6906L34.22 17.9512C34.7277 20.022 34.7581 22.181 34.3092 24.2653C33.8601 26.3496 32.9434 28.3045 31.6282 29.9826C30.3129 31.6607 28.6335 33.0179 26.7169 33.9518C24.8003 34.8858 22.6965 35.372 20.5644 35.3737C14 35.3737 5.5625 32.5575 0.875 29.745C8.3375 24.12 6.58812 20.7262 7.4375 17.5575C9.42125 10.1512 16.5144 5.82372 23.915 7.64997ZM30.3125 11.1731C30.4363 11.2912 30.5562 11.4131 30.6762 11.535L32.8063 13.6631L37.4469 7.69685L34.1731 4.4231L28.2069 9.06372L30.3125 11.1731Z" fill="#262826"/>
</svg>
