<svg width="24" height="24" viewBox="0 0 24 24" fill="none" xmlns="http://www.w3.org/2000/svg">
<path d="M23.63 4.66536C23.168 3.87136 22.318 3.33203 21.3333 3.33203H12V4.66536H23.63ZM0 16.6654H24V17.9987H0V16.6654ZM12 11.332H24V12.6654H12V11.332ZM12 8.66536H24V9.9987H12V8.66536ZM0 13.9987H24V15.332H0V13.9987ZM2.66667 20.6654H21.3333C22.318 20.6654 23.168 20.126 23.63 19.332H0.37C0.832 20.126 1.682 20.6654 2.66667 20.6654ZM12 5.9987H24V7.33203H12V5.9987Z" fill="#B22334"/>
<path d="M0.0453333 18.454C0.0564444 18.5162 0.0695556 18.5777 0.0846667 18.6386C0.102444 18.7053 0.122889 18.7711 0.146 18.836C0.205333 19.0086 0.277333 19.1753 0.368 19.3313L0.37 19.3346H23.63L23.6313 19.332C23.7217 19.1752 23.7958 19.0097 23.8527 18.838C23.8959 18.7127 23.9298 18.5843 23.954 18.454C23.9813 18.3073 24 18.1566 24 18.0013H0C0 18.1566 0.0186667 18.3066 0.0453333 18.454ZM0 15.3346H24V16.668H0V15.3346ZM0 12.668V14.0013H24V12.668H12H0ZM12 10.0013H24V11.3346H12V10.0013ZM12 7.33464H24V8.66797H12V7.33464ZM0.0853333 5.36397C0.102 5.29597 0.125333 5.2313 0.146667 5.16597C0.123664 5.23115 0.103204 5.2972 0.0853333 5.36397ZM12 6.0013H24C24 5.84597 23.9813 5.6953 23.954 5.54797C23.9307 5.41737 23.8966 5.28893 23.852 5.16397C23.7951 4.99151 23.7207 4.82531 23.63 4.66797H12V6.0013Z" fill="#EEEEEE"/>
<path d="M12 3.33203H2.66667C1.95942 3.33203 1.28115 3.61298 0.781049 4.11308C0.280952 4.61318 0 5.29145 0 5.9987L0 12.6654H12V3.33203Z" fill="#3C3B6E"/>
<path d="M1.33398 5.15197L1.74598 5.4513L1.58865 5.93464L1.99998 5.63597L2.41198 5.93464L2.25465 5.4513L2.66665 5.15197H2.15732L1.99998 4.66797L1.84332 5.15197H1.33398ZM2.66732 6.4853L3.07932 6.78464L2.92198 7.26797L3.33332 6.9693L3.74532 7.26797L3.58798 6.78464L3.99998 6.4853H3.49065L3.33332 6.0013L3.17665 6.4853H2.66732ZM5.33398 6.4853L5.74599 6.78464L5.58865 7.26797L5.99998 6.9693L6.41198 7.26797L6.25465 6.78464L6.66665 6.4853H6.15732L5.99998 6.0013L5.84332 6.4853H5.33398ZM8.00065 6.4853L8.41265 6.78464L8.25532 7.26797L8.66665 6.9693L9.07865 7.26797L8.92132 6.78464L9.33332 6.4853H8.82399L8.66665 6.0013L8.50998 6.4853H8.00065ZM2.66732 9.15197L3.07932 9.4513L2.92198 9.93464L3.33332 9.63597L3.74532 9.93464L3.58798 9.4513L3.99998 9.15197H3.49065L3.33332 8.66797L3.17665 9.15197H2.66732ZM5.33398 9.15197L5.74599 9.4513L5.58865 9.93464L5.99998 9.63597L6.41198 9.93464L6.25465 9.4513L6.66665 9.15197H6.15732L5.99998 8.66797L5.84332 9.15197H5.33398ZM8.00065 9.15197L8.41265 9.4513L8.25532 9.93464L8.66665 9.63597L9.07865 9.93464L8.92132 9.4513L9.33332 9.15197H8.82399L8.66665 8.66797L8.50998 9.15197H8.00065ZM4.00065 5.15197L4.41265 5.4513L4.25532 5.93464L4.66665 5.63597L5.07865 5.93464L4.92132 5.4513L5.33332 5.15197H4.82398L4.66665 4.66797L4.50998 5.15197H4.00065ZM6.66732 5.15197L7.07932 5.4513L6.92198 5.93464L7.33332 5.63597L7.74532 5.93464L7.58799 5.4513L7.99998 5.15197H7.49065L7.33332 4.66797L7.17665 5.15197H6.66732ZM9.33398 5.15197L9.74599 5.4513L9.58865 5.93464L9.99998 5.63597L10.412 5.93464L10.2547 5.4513L10.6667 5.15197H10.1573L9.99998 4.66797L9.84332 5.15197H9.33398ZM1.33398 7.81864L1.74598 8.11797L1.58865 8.6013L1.99998 8.30264L2.41198 8.6013L2.25465 8.11797L2.66665 7.81864H2.15732L1.99998 7.33464L1.84332 7.81864H1.33398ZM4.25532 8.6013L4.66665 8.30264L5.07865 8.6013L4.92132 8.11797L5.33332 7.81864H4.82398L4.66665 7.33464L4.50998 7.81864H4.00065L4.41265 8.11797L4.25532 8.6013ZM6.66732 7.81864L7.07932 8.11797L6.92198 8.6013L7.33332 8.30264L7.74532 8.6013L7.58799 8.11797L7.99998 7.81864H7.49065L7.33332 7.33464L7.17665 7.81864H6.66732ZM9.33398 7.81864L9.74599 8.11797L9.58865 8.6013L9.99998 8.30264L10.412 8.6013L10.2547 8.11797L10.6667 7.81864H10.1573L9.99998 7.33464L9.84332 7.81864H9.33398ZM1.33398 10.4853L1.74598 10.7846L1.58865 11.268L1.99998 10.9693L2.41198 11.268L2.25465 10.7846L2.66665 10.4853H2.15732L1.99998 10.0013L1.84332 10.4853H1.33398ZM4.25532 11.268L4.66665 10.9693L5.07865 11.268L4.92132 10.7846L5.33332 10.4853H4.82398L4.66665 10.0013L4.50998 10.4853H4.00065L4.41265 10.7846L4.25532 11.268ZM6.66732 10.4853L7.07932 10.7846L6.92198 11.268L7.33332 10.9693L7.74532 11.268L7.58799 10.7846L7.99998 10.4853H7.49065L7.33332 10.0013L7.17665 10.4853H6.66732ZM9.33398 10.4853L9.74599 10.7846L9.58865 11.268L9.99998 10.9693L10.412 11.268L10.2547 10.7846L10.6667 10.4853H10.1573L9.99998 10.0013L9.84332 10.4853H9.33398Z" fill="white"/>
</svg>
